<?xml version="1.0" encoding="utf-8"?>
<!-- Generator: Adobe Illustrator 26.0.2, SVG Export Plug-In . SVG Version: 6.00 Build 0)  -->
<svg version="1.1" id="Calque_1" xmlns="http://www.w3.org/2000/svg" xmlns:xlink="http://www.w3.org/1999/xlink" x="0px" y="0px"
	 width="530.2px" height="173.4px" viewBox="0 0 530.2 173.4" style="enable-background:new 0 0 530.2 173.4;" xml:space="preserve"
	>
<style type="text/css">
	.st0{fill:#030093;}
	.st1{fill:#FF8400;}
	.st2{fill:#E00041;}
	.st3{fill:#759B00;}
	.st4{fill:#FFFFFF;}
</style>
<g>
	<path d="M191.2,35.2L191.2,35.2l8.4-21.8h6.2v28.3h-4V18.1h-0.1l-9.4,23.7h-2.5l-9.4-23.7h-0.1v23.7h-3.8V13.4h6.2L191.2,35.2z"/>
	<path d="M216.6,38.2h14.8v3.5h-18.8V13.4h18.2v3.5h-14.2v8.5H230v3.4h-13.4V38.2z M222.8,11.2h-3l4-5.8h4.6L222.8,11.2z"/>
	<path d="M236.7,13.4h9.7c1.8,0,3.6,0.3,5.4,0.8s3.5,1.4,4.9,2.5c1.5,1.1,2.7,2.6,3.6,4.4c0.9,1.8,1.4,3.9,1.4,6.4
		c0,2.4-0.5,4.5-1.4,6.3c-0.9,1.8-2.1,3.2-3.6,4.4s-3.1,2-4.9,2.6s-3.6,0.9-5.4,0.9h-9.7V13.4z M240.7,38.3h5c1.7,0,3.3-0.2,4.7-0.7
		c1.5-0.5,2.7-1.2,3.8-2.1c1.1-0.9,1.9-2,2.5-3.4c0.6-1.3,0.9-2.8,0.9-4.5c0-1.8-0.3-3.3-0.9-4.6c-0.6-1.3-1.4-2.4-2.5-3.3
		c-1.1-0.9-2.3-1.6-3.8-2s-3-0.7-4.7-0.7h-5V38.3z"/>
	<path d="M271.1,41.8h-4V13.4h4V41.8z"/>
	<path d="M279.2,41.8h-4.4L287,13.4h3.6l12.2,28.3h-4.5l-2.9-7H282L279.2,41.8z M283.4,31.3H294L288.7,18L283.4,31.3z"/>
	<path d="M314,41.8h-4V16.9h-9.1v-3.5H323v3.5H314V41.8z"/>
	<path d="M330.8,41.8h-4V13.4h4V41.8z"/>
	<path d="M366.2,27.6c0,2.2-0.4,4.2-1.1,6c-0.8,1.8-1.8,3.4-3.1,4.7c-1.3,1.3-2.9,2.3-4.8,3.1s-3.8,1.1-6,1.1s-4.2-0.4-6-1.1
		c-1.8-0.7-3.4-1.8-4.7-3.1c-1.3-1.3-2.4-2.9-3.1-4.7c-0.7-1.8-1.1-3.8-1.1-6c0-2.2,0.4-4.2,1.1-6.1c0.7-1.8,1.8-3.4,3.1-4.7
		c1.3-1.3,2.9-2.3,4.7-3c1.8-0.7,3.8-1.1,6-1.1s4.2,0.4,6,1.1s3.4,1.7,4.8,3s2.4,2.9,3.1,4.7C365.8,23.3,366.2,25.4,366.2,27.6z
		 M361.9,27.6c0-1.5-0.3-3-0.8-4.4c-0.5-1.4-1.2-2.6-2.2-3.6s-2.1-1.9-3.4-2.5c-1.3-0.6-2.8-0.9-4.5-0.9c-1.6,0-3.1,0.3-4.4,0.9
		c-1.3,0.6-2.4,1.4-3.4,2.5s-1.6,2.2-2.1,3.6c-0.5,1.4-0.8,2.8-0.8,4.4c0,1.6,0.3,3.1,0.8,4.4c0.5,1.4,1.2,2.6,2.2,3.6
		c0.9,1,2.1,1.8,3.4,2.4c1.3,0.6,2.8,0.9,4.4,0.9c1.6,0,3.1-0.3,4.4-0.9c1.3-0.6,2.5-1.4,3.4-2.4s1.7-2.2,2.2-3.6
		C361.7,30.6,361.9,29.1,361.9,27.6z"/>
	<path d="M391.6,36.1L391.6,36.1l0.1-22.6h4v28.3h-5l-15-23.1h-0.1v23.1h-4V13.4h5.2L391.6,36.1z"/>
	<path d="M416.6,18.7c-0.6-0.8-1.3-1.4-2.3-1.9s-2-0.7-3.2-0.7c-0.6,0-1.3,0.1-1.9,0.3c-0.7,0.2-1.2,0.5-1.8,0.8
		c-0.5,0.4-1,0.9-1.3,1.4c-0.3,0.6-0.5,1.3-0.5,2.1c0,0.8,0.2,1.4,0.5,1.9c0.3,0.5,0.7,1,1.2,1.3c0.5,0.4,1.1,0.7,1.8,0.9
		c0.7,0.3,1.5,0.5,2.3,0.8c1,0.3,1.9,0.6,2.9,1c1,0.4,1.9,0.9,2.7,1.5s1.5,1.4,2,2.3s0.8,2.1,0.8,3.5c0,1.5-0.3,2.7-0.8,3.8
		c-0.5,1.1-1.3,2-2.2,2.7c-0.9,0.7-2,1.2-3.1,1.6s-2.4,0.5-3.7,0.5c-1.8,0-3.5-0.3-5.2-1c-1.7-0.7-3-1.7-4.1-3.1l3.1-2.6
		c0.7,1,1.6,1.8,2.7,2.4s2.3,0.9,3.6,0.9c0.7,0,1.3-0.1,2-0.3c0.7-0.2,1.3-0.5,1.8-0.9c0.5-0.4,1-0.9,1.3-1.5s0.5-1.3,0.5-2.2
		s-0.2-1.6-0.5-2.1c-0.4-0.6-0.8-1.1-1.5-1.5c-0.6-0.4-1.3-0.7-2.1-1s-1.7-0.6-2.6-0.9c-0.9-0.3-1.8-0.6-2.7-1s-1.7-0.9-2.4-1.5
		c-0.7-0.6-1.3-1.3-1.7-2.2c-0.4-0.9-0.6-2-0.6-3.3c0-1.4,0.3-2.6,0.9-3.6s1.3-1.9,2.2-2.5c0.9-0.7,2-1.2,3.1-1.5
		c1.2-0.3,2.3-0.5,3.5-0.5c1.7,0,3.2,0.3,4.6,0.9c1.4,0.6,2.6,1.4,3.5,2.4L416.6,18.7z"/>
	<path d="M180.5,79.8h-4V51.4h4V79.8z"/>
	<path d="M207.4,74.1L207.4,74.1l0.1-22.6h4v28.3h-5l-15-23.1h-0.1v23.1h-4V51.4h5.2L207.4,74.1z"/>
	<path d="M222.2,79.8h-4V51.4H236v3.5h-13.7v8.8h12.8v3.4h-12.8V79.8z"/>
	<path d="M269.6,65.6c0,2.2-0.4,4.2-1.1,6c-0.8,1.8-1.8,3.4-3.1,4.7c-1.3,1.3-2.9,2.3-4.8,3.1s-3.8,1.1-6,1.1s-4.2-0.4-6-1.1
		c-1.8-0.7-3.4-1.8-4.7-3.1c-1.3-1.3-2.4-2.9-3.1-4.7c-0.7-1.8-1.1-3.8-1.1-6c0-2.2,0.4-4.2,1.1-6.1c0.7-1.8,1.8-3.4,3.1-4.7
		c1.3-1.3,2.9-2.3,4.7-3c1.8-0.7,3.8-1.1,6-1.1s4.2,0.4,6,1.1s3.4,1.7,4.8,3s2.4,2.9,3.1,4.7C269.2,61.3,269.6,63.4,269.6,65.6z
		 M265.3,65.6c0-1.5-0.3-3-0.8-4.4c-0.5-1.4-1.2-2.6-2.2-3.6s-2.1-1.9-3.4-2.5c-1.3-0.6-2.8-0.9-4.5-0.9c-1.6,0-3.1,0.3-4.4,0.9
		c-1.3,0.6-2.4,1.4-3.4,2.5s-1.6,2.2-2.1,3.6c-0.5,1.4-0.8,2.8-0.8,4.4c0,1.6,0.3,3.1,0.8,4.4c0.5,1.4,1.2,2.6,2.2,3.6
		c0.9,1,2.1,1.8,3.4,2.4c1.3,0.6,2.8,0.9,4.4,0.9c1.6,0,3.1-0.3,4.4-0.9c1.3-0.6,2.5-1.4,3.4-2.4s1.7-2.2,2.2-3.6
		C265,68.6,265.3,67.1,265.3,65.6z"/>
	<path d="M278.9,79.8h-4V51.4h9.1c1.4,0,2.7,0.1,3.9,0.4c1.2,0.3,2.3,0.7,3.2,1.3s1.6,1.4,2.2,2.4s0.8,2.2,0.8,3.7
		c0,2.1-0.6,3.8-1.9,5c-1.3,1.3-2.9,2.1-5,2.4l7.9,13h-4.8l-7.2-12.6h-4.2V79.8z M278.9,63.8h4.6c0.9,0,1.8-0.1,2.6-0.2
		c0.8-0.2,1.5-0.4,2.1-0.8c0.6-0.4,1.1-0.8,1.4-1.4c0.3-0.6,0.5-1.3,0.5-2.1s-0.2-1.6-0.5-2.1c-0.3-0.6-0.8-1-1.4-1.4
		c-0.6-0.3-1.2-0.6-2-0.7c-0.8-0.1-1.6-0.2-2.4-0.2h-4.8V63.8z"/>
	<path d="M314.2,73.2L314.2,73.2l8.4-21.8h6.2v28.3h-4V56.1h-0.1l-9.4,23.7h-2.5l-9.4-23.7h-0.1v23.7h-3.8V51.4h6.2L314.2,73.2z"/>
	<path d="M336.8,79.8h-4.4l12.3-28.3h3.6l12.2,28.3H356l-2.9-7h-13.4L336.8,79.8z M341,69.3h10.6L346.4,56L341,69.3z"/>
	<path d="M371.6,79.8h-4V54.9h-9.1v-3.5h22.1v3.5h-9.1V79.8z"/>
	<path d="M388.4,79.8h-4V51.4h4V79.8z"/>
	<path d="M423.8,65.6c0,2.2-0.4,4.2-1.1,6c-0.8,1.8-1.8,3.4-3.1,4.7c-1.3,1.3-2.9,2.3-4.8,3.1s-3.8,1.1-6,1.1s-4.2-0.4-6-1.1
		c-1.8-0.7-3.4-1.8-4.7-3.1c-1.3-1.3-2.4-2.9-3.1-4.7c-0.7-1.8-1.1-3.8-1.1-6c0-2.2,0.4-4.2,1.1-6.1c0.7-1.8,1.8-3.4,3.1-4.7
		c1.3-1.3,2.9-2.3,4.7-3c1.8-0.7,3.8-1.1,6-1.1s4.2,0.4,6,1.1s3.4,1.7,4.8,3s2.4,2.9,3.1,4.7C423.5,61.3,423.8,63.4,423.8,65.6z
		 M419.6,65.6c0-1.5-0.3-3-0.8-4.4c-0.5-1.4-1.2-2.6-2.2-3.6s-2.1-1.9-3.4-2.5c-1.3-0.6-2.8-0.9-4.5-0.9c-1.6,0-3.1,0.3-4.4,0.9
		c-1.3,0.6-2.4,1.4-3.4,2.5s-1.6,2.2-2.1,3.6c-0.5,1.4-0.8,2.8-0.8,4.4c0,1.6,0.3,3.1,0.8,4.4c0.5,1.4,1.2,2.6,2.2,3.6
		c0.9,1,2.1,1.8,3.4,2.4c1.3,0.6,2.8,0.9,4.4,0.9c1.6,0,3.1-0.3,4.4-0.9c1.3-0.6,2.5-1.4,3.4-2.4s1.7-2.2,2.2-3.6
		C419.3,68.6,419.6,67.1,419.6,65.6z"/>
	<path d="M449.2,74.1L449.2,74.1l0.1-22.6h4v28.3h-5l-15-23.1h-0.1v23.1h-4V51.4h5.2L449.2,74.1z"/>
	<path d="M474.2,56.7c-0.6-0.8-1.3-1.4-2.3-1.9s-2-0.7-3.2-0.7c-0.6,0-1.3,0.1-1.9,0.3c-0.7,0.2-1.2,0.5-1.8,0.8
		c-0.5,0.4-1,0.9-1.3,1.4c-0.3,0.6-0.5,1.3-0.5,2.1c0,0.8,0.2,1.4,0.5,1.9c0.3,0.5,0.7,1,1.2,1.3c0.5,0.4,1.1,0.7,1.8,0.9
		c0.7,0.3,1.5,0.5,2.3,0.8c1,0.3,1.9,0.6,2.9,1c1,0.4,1.9,0.9,2.7,1.5s1.5,1.4,2,2.3s0.8,2.1,0.8,3.5c0,1.5-0.3,2.7-0.8,3.8
		c-0.5,1.1-1.3,2-2.2,2.7c-0.9,0.7-2,1.2-3.1,1.6s-2.4,0.5-3.7,0.5c-1.8,0-3.5-0.3-5.2-1c-1.7-0.7-3-1.7-4.1-3.1l3.1-2.6
		c0.7,1,1.6,1.8,2.7,2.4s2.3,0.9,3.6,0.9c0.7,0,1.3-0.1,2-0.3c0.7-0.2,1.3-0.5,1.8-0.9c0.5-0.4,1-0.9,1.3-1.5s0.5-1.3,0.5-2.2
		s-0.2-1.6-0.5-2.1c-0.4-0.6-0.8-1.1-1.5-1.5c-0.6-0.4-1.3-0.7-2.1-1s-1.7-0.6-2.6-0.9c-0.9-0.3-1.8-0.6-2.7-1s-1.7-0.9-2.4-1.5
		c-0.7-0.6-1.3-1.3-1.7-2.2c-0.4-0.9-0.6-2-0.6-3.3c0-1.4,0.3-2.6,0.9-3.6s1.3-1.9,2.2-2.5c0.9-0.7,2-1.2,3.1-1.5
		c1.2-0.3,2.3-0.5,3.5-0.5c1.7,0,3.2,0.3,4.6,0.9c1.4,0.6,2.6,1.4,3.5,2.4L474.2,56.7z"/>
	<path d="M200.8,113.4c-1.1,1.5-2.6,2.8-4.4,3.7c-1.8,0.9-3.9,1.4-6.4,1.4c-2.2,0-4.2-0.4-6-1.1c-1.8-0.7-3.4-1.8-4.7-3.1
		c-1.3-1.3-2.4-2.9-3.1-4.7c-0.7-1.8-1.1-3.8-1.1-6c0-2.2,0.4-4.2,1.1-6.1c0.8-1.8,1.8-3.4,3.2-4.7s2.9-2.3,4.8-3s3.8-1.1,6-1.1
		c1,0,1.9,0.1,2.9,0.3c1,0.2,1.9,0.5,2.8,0.8c0.9,0.4,1.7,0.8,2.5,1.4c0.7,0.5,1.4,1.2,1.9,1.9l-3.1,2.4c-0.7-1-1.7-1.8-2.9-2.4
		c-1.3-0.6-2.6-0.9-4.1-0.9c-1.7,0-3.1,0.3-4.5,0.9c-1.3,0.6-2.4,1.4-3.4,2.5c-0.9,1-1.7,2.2-2.2,3.6c-0.5,1.4-0.8,2.8-0.8,4.4
		c0,1.6,0.2,3.1,0.7,4.5s1.2,2.6,2.1,3.6s2,1.8,3.4,2.4c1.3,0.6,2.8,0.9,4.4,0.9c1.6,0,3.1-0.3,4.4-1c1.3-0.6,2.4-1.6,3.2-2.8
		L200.8,113.4z"/>
	<path d="M233,103.6c0,2.2-0.4,4.2-1.1,6c-0.8,1.8-1.8,3.4-3.1,4.7c-1.3,1.3-2.9,2.3-4.8,3.1s-3.8,1.1-6,1.1s-4.2-0.4-6-1.1
		c-1.8-0.7-3.4-1.8-4.7-3.1c-1.3-1.3-2.4-2.9-3.1-4.7c-0.7-1.8-1.1-3.8-1.1-6c0-2.2,0.4-4.2,1.1-6.1c0.7-1.8,1.8-3.4,3.1-4.7
		c1.3-1.3,2.9-2.3,4.7-3c1.8-0.7,3.8-1.1,6-1.1s4.2,0.4,6,1.1s3.4,1.7,4.8,3s2.4,2.9,3.1,4.7C232.6,99.3,233,101.4,233,103.6z
		 M228.7,103.6c0-1.5-0.3-3-0.8-4.4c-0.5-1.4-1.2-2.6-2.2-3.6s-2.1-1.9-3.4-2.5c-1.3-0.6-2.8-0.9-4.5-0.9c-1.6,0-3.1,0.3-4.4,0.9
		c-1.3,0.6-2.4,1.4-3.4,2.5s-1.6,2.2-2.1,3.6c-0.5,1.4-0.8,2.8-0.8,4.4c0,1.6,0.3,3.1,0.8,4.4c0.5,1.4,1.2,2.6,2.2,3.6
		c0.9,1,2.1,1.8,3.4,2.4c1.3,0.6,2.8,0.9,4.4,0.9c1.6,0,3.1-0.3,4.4-0.9c1.3-0.6,2.5-1.4,3.4-2.4s1.7-2.2,2.2-3.6
		C228.4,106.6,228.7,105.1,228.7,103.6z"/>
	<path d="M253,111.2L253,111.2l8.4-21.8h6.2v28.3h-4V94.1h-0.1l-9.4,23.7h-2.5l-9.4-23.7h-0.1v23.7h-3.8V89.4h6.2L253,111.2z"/>
	<path d="M289.1,111.2L289.1,111.2l8.4-21.8h6.2v28.3h-4V94.1h-0.1l-9.4,23.7h-2.5l-9.4-23.7h-0.1v23.7h-3.8V89.4h6.2L289.1,111.2z"
		/>
	<path d="M321.4,118.5c-1.9,0-3.5-0.3-4.9-0.9c-1.4-0.6-2.5-1.5-3.4-2.5c-0.9-1-1.6-2.2-2-3.6c-0.4-1.3-0.7-2.7-0.7-4.2V89.4h4V107
		c0,1,0.1,1.9,0.4,2.9c0.2,0.9,0.6,1.8,1.2,2.5c0.5,0.7,1.3,1.3,2.2,1.8c0.9,0.5,2,0.7,3.3,0.7c1.3,0,2.4-0.2,3.3-0.7
		s1.6-1.1,2.2-1.8c0.5-0.7,0.9-1.6,1.2-2.5s0.4-1.9,0.4-2.9V89.4h4v17.8c0,1.4-0.2,2.8-0.7,4.2c-0.4,1.3-1.1,2.5-2,3.6
		s-2.1,1.9-3.4,2.5C324.9,118.2,323.3,118.5,321.4,118.5z"/>
	<path d="M359,112.1L359,112.1l0.1-22.6h4v28.3h-5l-15-23.1H343v23.1h-4V89.4h5.2L359,112.1z"/>
	<path d="M373.9,117.8h-4V89.4h4V117.8z"/>
	<path d="M405.1,113.4c-1.1,1.5-2.6,2.8-4.4,3.7c-1.8,0.9-3.9,1.4-6.4,1.4c-2.2,0-4.2-0.4-6-1.1c-1.8-0.7-3.4-1.8-4.7-3.1
		c-1.3-1.3-2.4-2.9-3.1-4.7c-0.7-1.8-1.1-3.8-1.1-6c0-2.2,0.4-4.2,1.1-6.1c0.8-1.8,1.8-3.4,3.2-4.7s2.9-2.3,4.8-3s3.8-1.1,6-1.1
		c1,0,1.9,0.1,2.9,0.3c1,0.2,1.9,0.5,2.8,0.8c0.9,0.4,1.7,0.8,2.5,1.4c0.7,0.5,1.4,1.2,1.9,1.9l-3.1,2.4c-0.7-1-1.7-1.8-2.9-2.4
		c-1.3-0.6-2.6-0.9-4.1-0.9c-1.7,0-3.1,0.3-4.5,0.9c-1.3,0.6-2.4,1.4-3.4,2.5c-0.9,1-1.7,2.2-2.2,3.6c-0.5,1.4-0.8,2.8-0.8,4.4
		c0,1.6,0.2,3.1,0.7,4.5s1.2,2.6,2.1,3.6s2,1.8,3.4,2.4c1.3,0.6,2.8,0.9,4.4,0.9c1.6,0,3.1-0.3,4.4-1c1.3-0.6,2.4-1.6,3.2-2.8
		L405.1,113.4z"/>
	<path d="M409.8,117.8h-4.4l12.3-28.3h3.6l12.2,28.3H429l-2.9-7h-13.4L409.8,117.8z M414,107.3h10.6L419.4,94L414,107.3z"/>
	<path d="M444.6,117.8h-4V92.9h-9.1v-3.5h22.1v3.5h-9.1V117.8z"/>
	<path d="M461.4,117.8h-4V89.4h4V117.8z"/>
	<path d="M496.8,103.6c0,2.2-0.4,4.2-1.1,6c-0.8,1.8-1.8,3.4-3.1,4.7c-1.3,1.3-2.9,2.3-4.8,3.1s-3.8,1.1-6,1.1s-4.2-0.4-6-1.1
		c-1.8-0.7-3.4-1.8-4.7-3.1c-1.3-1.3-2.4-2.9-3.1-4.7c-0.7-1.8-1.1-3.8-1.1-6c0-2.2,0.4-4.2,1.1-6.1c0.7-1.8,1.8-3.4,3.1-4.7
		c1.3-1.3,2.9-2.3,4.7-3c1.8-0.7,3.8-1.1,6-1.1s4.2,0.4,6,1.1s3.4,1.7,4.8,3s2.4,2.9,3.1,4.7C496.5,99.3,496.8,101.4,496.8,103.6z
		 M492.6,103.6c0-1.5-0.3-3-0.8-4.4c-0.5-1.4-1.2-2.6-2.2-3.6s-2.1-1.9-3.4-2.5c-1.3-0.6-2.8-0.9-4.5-0.9c-1.6,0-3.1,0.3-4.4,0.9
		c-1.3,0.6-2.4,1.4-3.4,2.5s-1.6,2.2-2.1,3.6c-0.5,1.4-0.8,2.8-0.8,4.4c0,1.6,0.3,3.1,0.8,4.4c0.5,1.4,1.2,2.6,2.2,3.6
		c0.9,1,2.1,1.8,3.4,2.4c1.3,0.6,2.8,0.9,4.4,0.9c1.6,0,3.1-0.3,4.4-0.9c1.3-0.6,2.5-1.4,3.4-2.4s1.7-2.2,2.2-3.6
		C492.3,106.6,492.6,105.1,492.6,103.6z"/>
	<path d="M522.2,112.1L522.2,112.1l0.1-22.6h4v28.3h-5l-15-23.1h-0.1v23.1h-4V89.4h5.2L522.2,112.1z"/>
	<path d="M177.7,155.8h-4.4l12.3-28.3h3.6l12.2,28.3h-4.5l-2.9-7h-13.4L177.7,155.8z M182,145.3h10.6l-5.3-13.3L182,145.3z"/>
	<path d="M209,155.8h-4v-28.3h9.1c1.4,0,2.7,0.1,3.9,0.4c1.2,0.3,2.3,0.7,3.2,1.3s1.6,1.4,2.2,2.4s0.8,2.2,0.8,3.7
		c0,2.1-0.6,3.8-1.9,5c-1.3,1.3-2.9,2.1-5,2.4l7.9,13h-4.8l-7.2-12.6H209V155.8z M209,139.8h4.6c0.9,0,1.8-0.1,2.6-0.2
		c0.8-0.2,1.5-0.4,2.1-0.8c0.6-0.4,1.1-0.8,1.4-1.4c0.3-0.6,0.5-1.3,0.5-2.1s-0.2-1.6-0.5-2.1c-0.3-0.6-0.8-1-1.4-1.4
		c-0.6-0.3-1.2-0.6-2-0.7c-0.8-0.1-1.6-0.2-2.4-0.2H209V139.8z"/>
	<path d="M239,155.8h-4v-24.8H226v-3.5h22.1v3.5H239V155.8z"/>
	<path d="M265.9,132.7c-0.6-0.8-1.3-1.4-2.3-1.9s-2-0.7-3.2-0.7c-0.6,0-1.3,0.1-1.9,0.3c-0.7,0.2-1.2,0.5-1.8,0.8
		c-0.5,0.4-1,0.9-1.3,1.4c-0.3,0.6-0.5,1.3-0.5,2.1c0,0.8,0.2,1.4,0.5,1.9c0.3,0.5,0.7,1,1.2,1.3c0.5,0.4,1.1,0.7,1.8,0.9
		c0.7,0.3,1.5,0.5,2.3,0.8c1,0.3,1.9,0.6,2.9,1c1,0.4,1.9,0.9,2.7,1.5s1.5,1.4,2,2.3s0.8,2.1,0.8,3.5c0,1.5-0.3,2.7-0.8,3.8
		c-0.5,1.1-1.3,2-2.2,2.7c-0.9,0.7-2,1.2-3.1,1.6s-2.4,0.5-3.7,0.5c-1.8,0-3.5-0.3-5.2-1c-1.7-0.7-3-1.7-4.1-3.1l3.1-2.6
		c0.7,1,1.6,1.8,2.7,2.4s2.3,0.9,3.6,0.9c0.7,0,1.3-0.1,2-0.3c0.7-0.2,1.3-0.5,1.8-0.9c0.5-0.4,1-0.9,1.3-1.5s0.5-1.3,0.5-2.2
		s-0.2-1.6-0.5-2.1c-0.4-0.6-0.8-1.1-1.5-1.5c-0.6-0.4-1.3-0.7-2.1-1s-1.7-0.6-2.6-0.9c-0.9-0.3-1.8-0.6-2.7-1s-1.7-0.9-2.4-1.5
		c-0.7-0.6-1.3-1.3-1.7-2.2c-0.4-0.9-0.6-2-0.6-3.3c0-1.4,0.3-2.6,0.9-3.6s1.3-1.9,2.2-2.5c0.9-0.7,2-1.2,3.1-1.5
		c1.2-0.3,2.3-0.5,3.5-0.5c1.7,0,3.2,0.3,4.6,0.9c1.4,0.6,2.6,1.4,3.5,2.4L265.9,132.7z"/>
</g>
<path class="st0" d="M65.6,79.9H4.4c-2.4,0-4.4-2-4.4-4.4V14.3c0-2.4,2-4.4,4.4-4.4h61.2c2.4,0,4.4,2,4.4,4.4v61.2
	C70,77.9,68,79.9,65.6,79.9z"/>
<path class="st1" d="M143.6,79.9H82.4c-2.4,0-4.4-2-4.4-4.4V14.3c0-2.4,2-4.4,4.4-4.4h61.2c2.4,0,4.4,2,4.4,4.4v61.2
	C148,77.9,146,79.9,143.6,79.9z"/>
<path class="st2" d="M65.6,158.6H4.4c-2.4,0-4.4-2-4.4-4.4V92.9c0-2.4,2-4.4,4.4-4.4h61.2c2.4,0,4.4,2,4.4,4.4v61.2
	C70,156.6,68,158.6,65.6,158.6z"/>
<path class="st3" d="M143.6,158.6H82.4c-2.4,0-4.4-2-4.4-4.4V92.9c0-2.4,2-4.4,4.4-4.4h61.2c2.4,0,4.4,2,4.4,4.4v61.2
	C148,156.6,146,158.6,143.6,158.6z"/>
<g>
	<path class="st4" d="M44.5,59.5l0.2-20.8h-0.1l-7.6,20.8h-5l-7.4-20.8h-0.1l0.2,20.8h-6.7V30.1h10.1L34.6,49h0.2l6.4-18.8h10.3
		v29.4H44.5z"/>
</g>
<path class="st4" d="M120.7,138.1l-2.3-5.8h-11.4l-2.2,5.8h-7.7l12.3-29.4h6.9l12.2,29.4H120.7z M112.8,116.6l-3.7,10.1h7.4
	L112.8,116.6z"/>
<path class="st4" d="M42.8,137.6c-1.9,0.9-4.1,1.3-6.6,1.3c-2.3,0-4.4-0.4-6.3-1.1c-1.9-0.7-3.6-1.8-5-3.2c-1.4-1.4-2.5-3-3.3-4.9
	c-0.8-1.9-1.2-4-1.2-6.3c0-2.3,0.4-4.5,1.2-6.4c0.8-1.9,1.9-3.5,3.4-4.9c1.4-1.3,3.1-2.4,5.1-3.1c1.9-0.7,4-1.1,6.3-1.1
	c2.1,0,4.1,0.4,6.1,1.1c2,0.7,3.6,1.8,4.9,3.2l-4.8,4.8c-0.7-0.9-1.5-1.6-2.6-2c-1.1-0.4-2.2-0.7-3.3-0.7c-1.2,0-2.4,0.2-3.4,0.7
	c-1,0.5-1.9,1.1-2.7,1.9c-0.7,0.8-1.3,1.7-1.7,2.8c-0.4,1.1-0.6,2.3-0.6,3.6c0,1.3,0.2,2.5,0.6,3.6c0.4,1.1,1,2.1,1.7,2.8
	c0.7,0.8,1.6,1.4,2.6,1.8c1,0.4,2.1,0.7,3.4,0.7c1.4,0,2.6-0.3,3.7-0.8c1.1-0.6,1.9-1.3,2.5-2.2l4.9,4.6
	C46.3,135.5,44.7,136.7,42.8,137.6z"/>
<path class="st4" d="M108.7,59.5V30.1h7.1v29.4H108.7z"/>
</svg>
