<svg version="1.1" id="Calque_1" xmlns="http://www.w3.org/2000/svg" x="0" y="0" width="530.2" height="173.4" xml:space="preserve"><style>.st4{fill:#fff}</style><path d="m191.2 35.2 8.4-21.8h6.2v28.3h-4V18.1h-.1l-9.4 23.7h-2.5l-9.4-23.7h-.1v23.7h-3.8V13.4h6.2l8.5 21.8zM216.6 38.2h14.8v3.5h-18.8V13.4h18.2v3.5h-14.2v8.5H230v3.4h-13.4v9.4zm6.2-27h-3l4-5.8h4.6l-5.6 5.8zM236.7 13.4h9.7c1.8 0 3.6.3 5.4.8s3.5 1.4 4.9 2.5c1.5 1.1 2.7 2.6 3.6 4.4.9 1.8 1.4 3.9 1.4 6.4 0 2.4-.5 4.5-1.4 6.3-.9 1.8-2.1 3.2-3.6 4.4s-3.1 2-4.9 2.6-3.6.9-5.4.9h-9.7V13.4zm4 24.9h5c1.7 0 3.3-.2 4.7-.7 1.5-.5 2.7-1.2 3.8-2.1 1.1-.9 1.9-2 2.5-3.4.6-1.3.9-2.8.9-4.5 0-1.8-.3-3.3-.9-4.6-.6-1.3-1.4-2.4-2.5-3.3-1.1-.9-2.3-1.6-3.8-2s-3-.7-4.7-.7h-5v21.3zM271.1 41.8h-4V13.4h4v28.4zM279.2 41.8h-4.4L287 13.4h3.6l12.2 28.3h-4.5l-2.9-7H282l-2.8 7.1zm4.2-10.5H294L288.7 18l-5.3 13.3zM314 41.8h-4V16.9h-9.1v-3.5H323v3.5h-9v24.9zM330.8 41.8h-4V13.4h4v28.4zM366.2 27.6c0 2.2-.4 4.2-1.1 6-.8 1.8-1.8 3.4-3.1 4.7-1.3 1.3-2.9 2.3-4.8 3.1s-3.8 1.1-6 1.1-4.2-.4-6-1.1c-1.8-.7-3.4-1.8-4.7-3.1-1.3-1.3-2.4-2.9-3.1-4.7-.7-1.8-1.1-3.8-1.1-6s.4-4.2 1.1-6.1c.7-1.8 1.8-3.4 3.1-4.7 1.3-1.3 2.9-2.3 4.7-3 1.8-.7 3.8-1.1 6-1.1s4.2.4 6 1.1 3.4 1.7 4.8 3 2.4 2.9 3.1 4.7c.7 1.8 1.1 3.9 1.1 6.1zm-4.3 0c0-1.5-.3-3-.8-4.4-.5-1.4-1.2-2.6-2.2-3.6s-2.1-1.9-3.4-2.5c-1.3-.6-2.8-.9-4.5-.9-1.6 0-3.1.3-4.4.9-1.3.6-2.4 1.4-3.4 2.5s-1.6 2.2-2.1 3.6-.8 2.8-.8 4.4c0 1.6.3 3.1.8 4.4.5 1.4 1.2 2.6 2.2 3.6.9 1 2.1 1.8 3.4 2.4 1.3.6 2.8.9 4.4.9 1.6 0 3.1-.3 4.4-.9 1.3-.6 2.5-1.4 3.4-2.4s1.7-2.2 2.2-3.6c.6-1.4.8-2.9.8-4.4zM391.6 36.1l.1-22.6h4v28.3h-5l-15-23.1h-.1v23.1h-4V13.4h5.2l14.8 22.7zM416.6 18.7c-.6-.8-1.3-1.4-2.3-1.9s-2-.7-3.2-.7c-.6 0-1.3.1-1.9.3-.7.2-1.2.5-1.8.8-.5.4-1 .9-1.3 1.4-.3.6-.5 1.3-.5 2.1s.2 1.4.5 1.9.7 1 1.2 1.3c.5.4 1.1.7 1.8.9.7.3 1.5.5 2.3.8 1 .3 1.9.6 2.9 1s1.9.9 2.7 1.5 1.5 1.4 2 2.3.8 2.1.8 3.5c0 1.5-.3 2.7-.8 3.8-.5 1.1-1.3 2-2.2 2.7-.9.7-2 1.2-3.1 1.6s-2.4.5-3.7.5c-1.8 0-3.5-.3-5.2-1-1.7-.7-3-1.7-4.1-3.1l3.1-2.6c.7 1 1.6 1.8 2.7 2.4s2.3.9 3.6.9c.7 0 1.3-.1 2-.3.7-.2 1.3-.5 1.8-.9s1-.9 1.3-1.5.5-1.3.5-2.2-.2-1.6-.5-2.1c-.4-.6-.8-1.1-1.5-1.5-.6-.4-1.3-.7-2.1-1s-1.7-.6-2.6-.9c-.9-.3-1.8-.6-2.7-1s-1.7-.9-2.4-1.5-1.3-1.3-1.7-2.2c-.4-.9-.6-2-.6-3.3 0-1.4.3-2.6.9-3.6s1.3-1.9 2.2-2.5c.9-.7 2-1.2 3.1-1.5 1.2-.3 2.3-.5 3.5-.5 1.7 0 3.2.3 4.6.9 1.4.6 2.6 1.4 3.5 2.4l-2.8 2.8zM180.5 79.8h-4V51.4h4v28.4zM207.4 74.1l.1-22.6h4v28.3h-5l-15-23.1h-.1v23.1h-4V51.4h5.2l14.8 22.7zM222.2 79.8h-4V51.4H236v3.5h-13.7v8.8h12.8v3.4h-12.8v12.7zM269.6 65.6c0 2.2-.4 4.2-1.1 6-.8 1.8-1.8 3.4-3.1 4.7-1.3 1.3-2.9 2.3-4.8 3.1s-3.8 1.1-6 1.1-4.2-.4-6-1.1c-1.8-.7-3.4-1.8-4.7-3.1-1.3-1.3-2.4-2.9-3.1-4.7-.7-1.8-1.1-3.8-1.1-6s.4-4.2 1.1-6.1c.7-1.8 1.8-3.4 3.1-4.7 1.3-1.3 2.9-2.3 4.7-3 1.8-.7 3.8-1.1 6-1.1s4.2.4 6 1.1 3.4 1.7 4.8 3 2.4 2.9 3.1 4.7c.7 1.8 1.1 3.9 1.1 6.1zm-4.3 0c0-1.5-.3-3-.8-4.4-.5-1.4-1.2-2.6-2.2-3.6s-2.1-1.9-3.4-2.5c-1.3-.6-2.8-.9-4.5-.9-1.6 0-3.1.3-4.4.9-1.3.6-2.4 1.4-3.4 2.5s-1.6 2.2-2.1 3.6-.8 2.8-.8 4.4c0 1.6.3 3.1.8 4.4.5 1.4 1.2 2.6 2.2 3.6.9 1 2.1 1.8 3.4 2.4 1.3.6 2.8.9 4.4.9 1.6 0 3.1-.3 4.4-.9 1.3-.6 2.5-1.4 3.4-2.4s1.7-2.2 2.2-3.6c.5-1.4.8-2.9.8-4.4zM278.9 79.8h-4V51.4h9.1c1.4 0 2.7.1 3.9.4 1.2.3 2.3.7 3.2 1.3s1.6 1.4 2.2 2.4.8 2.2.8 3.7c0 2.1-.6 3.8-1.9 5-1.3 1.3-2.9 2.1-5 2.4l7.9 13h-4.8L283.1 67h-4.2v12.8zm0-16h4.6c.9 0 1.8-.1 2.6-.2.8-.2 1.5-.4 2.1-.8.6-.4 1.1-.8 1.4-1.4.3-.6.5-1.3.5-2.1s-.2-1.6-.5-2.1c-.3-.6-.8-1-1.4-1.4-.6-.3-1.2-.6-2-.7-.8-.1-1.6-.2-2.4-.2H279v8.9zM314.2 73.2l8.4-21.8h6.2v28.3h-4V56.1h-.1l-9.4 23.7h-2.5l-9.4-23.7h-.1v23.7h-3.8V51.4h6.2l8.5 21.8zM336.8 79.8h-4.4l12.3-28.3h3.6l12.2 28.3H356l-2.9-7h-13.4l-2.9 7zm4.2-10.5h10.6L346.4 56 341 69.3zM371.6 79.8h-4V54.9h-9.1v-3.5h22.1v3.5h-9.1v24.9zM388.4 79.8h-4V51.4h4v28.4zM423.8 65.6c0 2.2-.4 4.2-1.1 6-.8 1.8-1.8 3.4-3.1 4.7-1.3 1.3-2.9 2.3-4.8 3.1s-3.8 1.1-6 1.1-4.2-.4-6-1.1c-1.8-.7-3.4-1.8-4.7-3.1-1.3-1.3-2.4-2.9-3.1-4.7-.7-1.8-1.1-3.8-1.1-6s.4-4.2 1.1-6.1c.7-1.8 1.8-3.4 3.1-4.7 1.3-1.3 2.9-2.3 4.7-3 1.8-.7 3.8-1.1 6-1.1s4.2.4 6 1.1 3.4 1.7 4.8 3 2.4 2.9 3.1 4.7c.8 1.8 1.1 3.9 1.1 6.1zm-4.2 0c0-1.5-.3-3-.8-4.4-.5-1.4-1.2-2.6-2.2-3.6s-2.1-1.9-3.4-2.5c-1.3-.6-2.8-.9-4.5-.9-1.6 0-3.1.3-4.4.9-1.3.6-2.4 1.4-3.4 2.5s-1.6 2.2-2.1 3.6-.8 2.8-.8 4.4c0 1.6.3 3.1.8 4.4.5 1.4 1.2 2.6 2.2 3.6.9 1 2.1 1.8 3.4 2.4 1.3.6 2.8.9 4.4.9 1.6 0 3.1-.3 4.4-.9 1.3-.6 2.5-1.4 3.4-2.4s1.7-2.2 2.2-3.6c.5-1.4.8-2.9.8-4.4zM449.2 74.1l.1-22.6h4v28.3h-5l-15-23.1h-.1v23.1h-4V51.4h5.2l14.8 22.7zM474.2 56.7c-.6-.8-1.3-1.4-2.3-1.9s-2-.7-3.2-.7c-.6 0-1.3.1-1.9.3-.7.2-1.2.5-1.8.8-.5.4-1 .9-1.3 1.4-.3.6-.5 1.3-.5 2.1s.2 1.4.5 1.9.7 1 1.2 1.3c.5.4 1.1.7 1.8.9.7.3 1.5.5 2.3.8 1 .3 1.9.6 2.9 1s1.9.9 2.7 1.5 1.5 1.4 2 2.3.8 2.1.8 3.5c0 1.5-.3 2.7-.8 3.8-.5 1.1-1.3 2-2.2 2.7-.9.7-2 1.2-3.1 1.6s-2.4.5-3.7.5c-1.8 0-3.5-.3-5.2-1-1.7-.7-3-1.7-4.1-3.1l3.1-2.6c.7 1 1.6 1.8 2.7 2.4s2.3.9 3.6.9c.7 0 1.3-.1 2-.3.7-.2 1.3-.5 1.8-.9s1-.9 1.3-1.5.5-1.3.5-2.2-.2-1.6-.5-2.1c-.4-.6-.8-1.1-1.5-1.5-.6-.4-1.3-.7-2.1-1s-1.7-.6-2.6-.9c-.9-.3-1.8-.6-2.7-1s-1.7-.9-2.4-1.5-1.3-1.3-1.7-2.2c-.4-.9-.6-2-.6-3.3 0-1.4.3-2.6.9-3.6s1.3-1.9 2.2-2.5c.9-.7 2-1.2 3.1-1.5 1.2-.3 2.3-.5 3.5-.5 1.7 0 3.2.3 4.6.9 1.4.6 2.6 1.4 3.5 2.4l-2.8 2.8zM200.8 113.4c-1.1 1.5-2.6 2.8-4.4 3.7-1.8.9-3.9 1.4-6.4 1.4-2.2 0-4.2-.4-6-1.1-1.8-.7-3.4-1.8-4.7-3.1-1.3-1.3-2.4-2.9-3.1-4.7-.7-1.8-1.1-3.8-1.1-6s.4-4.2 1.1-6.1c.8-1.8 1.8-3.4 3.2-4.7s2.9-2.3 4.8-3 3.8-1.1 6-1.1c1 0 1.9.1 2.9.3 1 .2 1.9.5 2.8.8.9.4 1.7.8 2.5 1.4.7.5 1.4 1.2 1.9 1.9l-3.1 2.4c-.7-1-1.7-1.8-2.9-2.4-1.3-.6-2.6-.9-4.1-.9-1.7 0-3.1.3-4.5.9-1.3.6-2.4 1.4-3.4 2.5-.9 1-1.7 2.2-2.2 3.6-.5 1.4-.8 2.8-.8 4.4 0 1.6.2 3.1.7 4.5s1.2 2.6 2.1 3.6 2 1.8 3.4 2.4c1.3.6 2.8.9 4.4.9 1.6 0 3.1-.3 4.4-1 1.3-.6 2.4-1.6 3.2-2.8l3.3 2.2zM233 103.6c0 2.2-.4 4.2-1.1 6-.8 1.8-1.8 3.4-3.1 4.7-1.3 1.3-2.9 2.3-4.8 3.1s-3.8 1.1-6 1.1-4.2-.4-6-1.1c-1.8-.7-3.4-1.8-4.7-3.1-1.3-1.3-2.4-2.9-3.1-4.7-.7-1.8-1.1-3.8-1.1-6s.4-4.2 1.1-6.1c.7-1.8 1.8-3.4 3.1-4.7 1.3-1.3 2.9-2.3 4.7-3 1.8-.7 3.8-1.1 6-1.1s4.2.4 6 1.1 3.4 1.7 4.8 3 2.4 2.9 3.1 4.7c.7 1.8 1.1 3.9 1.1 6.1zm-4.3 0c0-1.5-.3-3-.8-4.4-.5-1.4-1.2-2.6-2.2-3.6s-2.1-1.9-3.4-2.5c-1.3-.6-2.8-.9-4.5-.9-1.6 0-3.1.3-4.4.9-1.3.6-2.4 1.4-3.4 2.5s-1.6 2.2-2.1 3.6-.8 2.8-.8 4.4c0 1.6.3 3.1.8 4.4.5 1.4 1.2 2.6 2.2 3.6.9 1 2.1 1.8 3.4 2.4 1.3.6 2.8.9 4.4.9 1.6 0 3.1-.3 4.4-.9 1.3-.6 2.5-1.4 3.4-2.4s1.7-2.2 2.2-3.6c.5-1.4.8-2.9.8-4.4zM253 111.2l8.4-21.8h6.2v28.3h-4V94.1h-.1l-9.4 23.7h-2.5l-9.4-23.7h-.1v23.7h-3.8V89.4h6.2l8.5 21.8zM289.1 111.2l8.4-21.8h6.2v28.3h-4V94.1h-.1l-9.4 23.7h-2.5l-9.4-23.7h-.1v23.7h-3.8V89.4h6.2l8.5 21.8zM321.4 118.5c-1.9 0-3.5-.3-4.9-.9-1.4-.6-2.5-1.5-3.4-2.5-.9-1-1.6-2.2-2-3.6-.4-1.3-.7-2.7-.7-4.2V89.4h4V107c0 1 .1 1.9.4 2.9.2.9.6 1.8 1.2 2.5.5.7 1.3 1.3 2.2 1.8.9.5 2 .7 3.3.7 1.3 0 2.4-.2 3.3-.7s1.6-1.1 2.2-1.8c.5-.7.9-1.6 1.2-2.5s.4-1.9.4-2.9V89.4h4v17.8c0 1.4-.2 2.8-.7 4.2-.4 1.3-1.1 2.5-2 3.6s-2.1 1.9-3.4 2.5c-1.6.7-3.2 1-5.1 1zM359 112.1l.1-22.6h4v28.3h-5l-15-23.1h-.1v23.1h-4V89.4h5.2l14.8 22.7zM373.9 117.8h-4V89.4h4v28.4zM405.1 113.4c-1.1 1.5-2.6 2.8-4.4 3.7-1.8.9-3.9 1.4-6.4 1.4-2.2 0-4.2-.4-6-1.1-1.8-.7-3.4-1.8-4.7-3.1-1.3-1.3-2.4-2.9-3.1-4.7-.7-1.8-1.1-3.8-1.1-6s.4-4.2 1.1-6.1c.8-1.8 1.8-3.4 3.2-4.7s2.9-2.3 4.8-3 3.8-1.1 6-1.1c1 0 1.9.1 2.9.3 1 .2 1.9.5 2.8.8.9.4 1.7.8 2.5 1.4.7.5 1.4 1.2 1.9 1.9l-3.1 2.4c-.7-1-1.7-1.8-2.9-2.4-1.3-.6-2.6-.9-4.1-.9-1.7 0-3.1.3-4.5.9-1.3.6-2.4 1.4-3.4 2.5-.9 1-1.7 2.2-2.2 3.6-.5 1.4-.8 2.8-.8 4.4 0 1.6.2 3.1.7 4.5s1.2 2.6 2.1 3.6 2 1.8 3.4 2.4c1.3.6 2.8.9 4.4.9 1.6 0 3.1-.3 4.4-1 1.3-.6 2.4-1.6 3.2-2.8l3.3 2.2zM409.8 117.8h-4.4l12.3-28.3h3.6l12.2 28.3H429l-2.9-7h-13.4l-2.9 7zm4.2-10.5h10.6L419.4 94l-5.4 13.3zM444.6 117.8h-4V92.9h-9.1v-3.5h22.1v3.5h-9.1v24.9zM461.4 117.8h-4V89.4h4v28.4zM496.8 103.6c0 2.2-.4 4.2-1.1 6-.8 1.8-1.8 3.4-3.1 4.7-1.3 1.3-2.9 2.3-4.8 3.1s-3.8 1.1-6 1.1-4.2-.4-6-1.1c-1.8-.7-3.4-1.8-4.7-3.1-1.3-1.3-2.4-2.9-3.1-4.7-.7-1.8-1.1-3.8-1.1-6s.4-4.2 1.1-6.1c.7-1.8 1.8-3.4 3.1-4.7 1.3-1.3 2.9-2.3 4.7-3 1.8-.7 3.8-1.1 6-1.1s4.2.4 6 1.1 3.4 1.7 4.8 3 2.4 2.9 3.1 4.7c.8 1.8 1.1 3.9 1.1 6.1zm-4.2 0c0-1.5-.3-3-.8-4.4-.5-1.4-1.2-2.6-2.2-3.6s-2.1-1.9-3.4-2.5c-1.3-.6-2.8-.9-4.5-.9-1.6 0-3.1.3-4.4.9-1.3.6-2.4 1.4-3.4 2.5s-1.6 2.2-2.1 3.6-.8 2.8-.8 4.4c0 1.6.3 3.1.8 4.4.5 1.4 1.2 2.6 2.2 3.6.9 1 2.1 1.8 3.4 2.4 1.3.6 2.8.9 4.4.9 1.6 0 3.1-.3 4.4-.9 1.3-.6 2.5-1.4 3.4-2.4s1.7-2.2 2.2-3.6c.5-1.4.8-2.9.8-4.4zM522.2 112.1l.1-22.6h4v28.3h-5l-15-23.1h-.1v23.1h-4V89.4h5.2l14.8 22.7zM177.7 155.8h-4.4l12.3-28.3h3.6l12.2 28.3h-4.5l-2.9-7h-13.4l-2.9 7zm4.3-10.5h10.6l-5.3-13.3-5.3 13.3zM209 155.8h-4v-28.3h9.1c1.4 0 2.7.1 3.9.4 1.2.3 2.3.7 3.2 1.3s1.6 1.4 2.2 2.4.8 2.2.8 3.7c0 2.1-.6 3.8-1.9 5-1.3 1.3-2.9 2.1-5 2.4l7.9 13h-4.8l-7.2-12.6H209v12.7zm0-16h4.6c.9 0 1.8-.1 2.6-.2.8-.2 1.5-.4 2.1-.8.6-.4 1.1-.8 1.4-1.4.3-.6.5-1.3.5-2.1s-.2-1.6-.5-2.1c-.3-.6-.8-1-1.4-1.4-.6-.3-1.2-.6-2-.7-.8-.1-1.6-.2-2.4-.2H209v8.9zM239 155.8h-4V131h-9v-3.5h22.1v3.5H239v24.8zM265.9 132.7c-.6-.8-1.3-1.4-2.3-1.9s-2-.7-3.2-.7c-.6 0-1.3.1-1.9.3-.7.2-1.2.5-1.8.8-.5.4-1 .9-1.3 1.4-.3.6-.5 1.3-.5 2.1s.2 1.4.5 1.9.7 1 1.2 1.3c.5.4 1.1.7 1.8.9.7.3 1.5.5 2.3.8 1 .3 1.9.6 2.9 1s1.9.9 2.7 1.5 1.5 1.4 2 2.3.8 2.1.8 3.5c0 1.5-.3 2.7-.8 3.8-.5 1.1-1.3 2-2.2 2.7-.9.7-2 1.2-3.1 1.6s-2.4.5-3.7.5c-1.8 0-3.5-.3-5.2-1-1.7-.7-3-1.7-4.1-3.1l3.1-2.6c.7 1 1.6 1.8 2.7 2.4s2.3.9 3.6.9c.7 0 1.3-.1 2-.3.7-.2 1.3-.5 1.8-.9s1-.9 1.3-1.5.5-1.3.5-2.2-.2-1.6-.5-2.1c-.4-.6-.8-1.1-1.5-1.5-.6-.4-1.3-.7-2.1-1s-1.7-.6-2.6-.9c-.9-.3-1.8-.6-2.7-1s-1.7-.9-2.4-1.5-1.3-1.3-1.7-2.2c-.4-.9-.6-2-.6-3.3 0-1.4.3-2.6.9-3.6s1.3-1.9 2.2-2.5c.9-.7 2-1.2 3.1-1.5 1.2-.3 2.3-.5 3.5-.5 1.7 0 3.2.3 4.6.9 1.4.6 2.6 1.4 3.5 2.4l-2.8 2.8z"/><path d="M65.6 79.9H4.4c-2.4 0-4.4-2-4.4-4.4V14.3c0-2.4 2-4.4 4.4-4.4h61.2c2.4 0 4.4 2 4.4 4.4v61.2c0 2.4-2 4.4-4.4 4.4z" fill="#030093"/><path d="M143.6 79.9H82.4c-2.4 0-4.4-2-4.4-4.4V14.3c0-2.4 2-4.4 4.4-4.4h61.2c2.4 0 4.4 2 4.4 4.4v61.2c0 2.4-2 4.4-4.4 4.4z" fill="#ff8400"/><path d="M65.6 158.6H4.4c-2.4 0-4.4-2-4.4-4.4V92.9c0-2.4 2-4.4 4.4-4.4h61.2c2.4 0 4.4 2 4.4 4.4v61.2c0 2.5-2 4.5-4.4 4.5z" fill="#e00041"/><path d="M143.6 158.6H82.4c-2.4 0-4.4-2-4.4-4.4V92.9c0-2.4 2-4.4 4.4-4.4h61.2c2.4 0 4.4 2 4.4 4.4v61.2c0 2.5-2 4.5-4.4 4.5z" fill="#759b00"/><g><path class="st4" d="m44.5 59.5.2-20.8h-.1L37 59.5h-5l-7.4-20.8h-.1l.2 20.8H18V30.1h10.1L34.6 49h.2l6.4-18.8h10.3v29.4h-7z"/></g><path class="st4" d="m120.7 138.1-2.3-5.8H107l-2.2 5.8h-7.7l12.3-29.4h6.9l12.2 29.4h-7.8zm-7.9-21.5-3.7 10.1h7.4l-3.7-10.1zM42.8 137.6c-1.9.9-4.1 1.3-6.6 1.3-2.3 0-4.4-.4-6.3-1.1-1.9-.7-3.6-1.8-5-3.2-1.4-1.4-2.5-3-3.3-4.9-.8-1.9-1.2-4-1.2-6.3s.4-4.5 1.2-6.4c.8-1.9 1.9-3.5 3.4-4.9 1.4-1.3 3.1-2.4 5.1-3.1 1.9-.7 4-1.1 6.3-1.1 2.1 0 4.1.4 6.1 1.1 2 .7 3.6 1.8 4.9 3.2l-4.8 4.8c-.7-.9-1.5-1.6-2.6-2-1.1-.4-2.2-.7-3.3-.7-1.2 0-2.4.2-3.4.7-1 .5-1.9 1.1-2.7 1.9-.7.8-1.3 1.7-1.7 2.8-.4 1.1-.6 2.3-.6 3.6 0 1.3.2 2.5.6 3.6.4 1.1 1 2.1 1.7 2.8.7.8 1.6 1.4 2.6 1.8 1 .4 2.1.7 3.4.7 1.4 0 2.6-.3 3.7-.8 1.1-.6 1.9-1.3 2.5-2.2l4.9 4.6c-1.4 1.7-3 2.9-4.9 3.8zM108.7 59.5V30.1h7.1v29.4h-7.1z"/></svg>
