<svg version="1.1" xmlns="http://www.w3.org/2000/svg" x="0" y="0" width="474.2" height="159.4" style="enable-background:new 0 0 474.2 159.4" xml:space="preserve"><style>.st4{fill:#fff}</style><path d="m191.9 33.1 7.9-19.3h3.6v23.4H201V16.8h-.1l-8.4 20.3h-1.3l-8.4-20.3h-.1v20.3h-2.4V13.7h3.6l8 19.4zM212 35h12.5v2.1h-14.9V13.7h14.5v2.1H212v8h11.3V26H212v9zm5.2-23.1h-1.9l3.3-4.8h3l-4.4 4.8zM229.1 13.7h7.8c1.5 0 2.9.2 4.4.7 1.5.5 2.8 1.2 4 2.2s2.1 2.2 2.9 3.7 1.1 3.2 1.1 5.1c0 2-.4 3.7-1.1 5.1-.7 1.5-1.7 2.7-2.9 3.6-1.2 1-2.5 1.7-4 2.2-1.5.5-2.9.7-4.4.7h-7.8V13.7zm2.4 21.3h4.7c1.8 0 3.3-.3 4.6-.8 1.3-.5 2.4-1.3 3.2-2.2.9-.9 1.5-1.9 1.9-3.1.4-1.1.6-2.3.6-3.5 0-1.2-.2-2.4-.6-3.5-.4-1.1-1.1-2.2-1.9-3.1-.9-.9-1.9-1.6-3.2-2.2-1.3-.5-2.8-.8-4.6-.8h-4.7V35zM256.5 37.1h-2.4V13.7h2.4v23.4zM262.5 37.1h-2.6L270 13.7h2.3l10 23.4h-2.6l-2.6-6.1H265l-2.5 6.1zm3.5-8.3h10.3l-5.1-12.4-5.2 12.4zM291.3 37.1h-2.4V15.9h-7.8v-2.1h18v2.1h-7.8v21.2zM305 37.1h-2.4V13.7h2.4v23.4zM334.3 25.4c0 1.8-.3 3.4-.9 4.9-.6 1.5-1.5 2.8-2.6 3.9s-2.4 1.9-3.9 2.6-3.1.9-4.8.9c-1.7 0-3.3-.3-4.8-.9s-2.8-1.5-3.9-2.6-1.9-2.4-2.6-3.9c-.6-1.5-.9-3.1-.9-4.9 0-1.8.3-3.4.9-4.9.6-1.5 1.5-2.8 2.6-3.9s2.4-1.9 3.9-2.6c1.5-.6 3.1-.9 4.8-.9 1.7 0 3.3.3 4.8.9 1.5.6 2.8 1.5 3.9 2.6s1.9 2.4 2.6 3.9c.6 1.5.9 3.1.9 4.9zm-2.5 0c0-1.4-.2-2.7-.7-3.9-.4-1.2-1.1-2.3-1.9-3.2-.8-.9-1.9-1.7-3.1-2.2s-2.5-.8-4-.8-2.8.3-4 .8-2.2 1.3-3.1 2.2c-.8.9-1.5 2-1.9 3.2s-.7 2.5-.7 3.9.2 2.7.7 3.9c.4 1.2 1.1 2.3 1.9 3.2s1.9 1.7 3.1 2.2c1.2.5 2.5.8 4 .8s2.8-.3 4-.8c1.2-.5 2.2-1.3 3.1-2.2.8-.9 1.5-2 1.9-3.2.5-1.2.7-2.5.7-3.9zM355.8 33.6l.1-19.9h2.4v23.4h-3L341.7 17h-.1v20.1h-2.4V13.7h3l13.6 19.9zM375.8 17.5c-.5-.7-1.2-1.3-1.9-1.7-.8-.4-1.7-.6-2.9-.6-.6 0-1.2.1-1.7.3-.6.2-1.1.4-1.6.8s-.9.8-1.2 1.4c-.3.6-.4 1.2-.4 1.9s.1 1.4.4 1.8c.3.5.7.9 1.1 1.2.5.3 1 .6 1.6.8.6.2 1.2.4 1.9.7.8.3 1.6.6 2.5.9.8.3 1.6.7 2.2 1.2.7.5 1.2 1.1 1.6 1.9.4.8.6 1.7.6 2.9s-.2 2.2-.7 3c-.4.8-1 1.5-1.7 2.1-.7.6-1.5 1-2.4 1.2-.9.3-1.8.4-2.8.4-.7 0-1.4-.1-2.1-.2-.7-.1-1.4-.4-2-.6s-1.2-.6-1.8-1.1c-.5-.4-1-.9-1.5-1.5l2-1.5c.5.8 1.2 1.5 2.1 2.1s2 .8 3.2.8c.6 0 1.2-.1 1.8-.3.6-.2 1.2-.5 1.7-.9s.9-.9 1.2-1.4c.3-.6.5-1.2.5-2s-.2-1.5-.5-2-.7-1-1.3-1.4c-.5-.4-1.1-.7-1.8-.9-.7-.2-1.4-.5-2.1-.7-.8-.2-1.5-.5-2.3-.8-.7-.3-1.4-.7-2-1.2-.6-.5-1.1-1.1-1.4-1.8-.4-.7-.5-1.6-.5-2.7s.2-2.1.7-2.9c.5-.8 1-1.5 1.8-2 .7-.5 1.5-.9 2.4-1.2.9-.2 1.7-.4 2.6-.4 1.6 0 2.9.3 4.1.8s2 1.2 2.5 2l-1.9 1.6zM182.7 74.1h-2.4V50.7h2.4v23.4zM205.5 70.6l.1-19.9h2.4v23.4h-3L191.4 54h-.1v20.1h-2.4V50.7h3l13.6 19.9zM216.5 74.1h-2.4V50.7h14.1v2.1h-11.7v8.1h10.9V63h-10.9v11.1zM255.8 62.4c0 1.8-.3 3.4-.9 4.9-.6 1.5-1.5 2.8-2.6 3.9s-2.4 1.9-3.9 2.6-3.1.9-4.8.9c-1.7 0-3.3-.3-4.8-.9s-2.8-1.5-3.9-2.6-1.9-2.4-2.6-3.9c-.6-1.5-.9-3.1-.9-4.9 0-1.8.3-3.4.9-4.9.6-1.5 1.5-2.8 2.6-3.9s2.4-1.9 3.9-2.6c1.5-.6 3.1-.9 4.8-.9 1.7 0 3.3.3 4.8.9 1.5.6 2.8 1.5 3.9 2.6s1.9 2.4 2.6 3.9c.6 1.5.9 3.1.9 4.9zm-2.5 0c0-1.4-.2-2.7-.7-3.9-.4-1.2-1.1-2.3-1.9-3.2-.8-.9-1.9-1.7-3.1-2.2s-2.5-.8-4-.8-2.8.3-4 .8-2.2 1.3-3.1 2.2c-.8.9-1.5 2-1.9 3.2s-.7 2.5-.7 3.9.2 2.7.7 3.9c.4 1.2 1.1 2.3 1.9 3.2s1.9 1.7 3.1 2.2c1.2.5 2.5.8 4 .8s2.8-.3 4-.8c1.2-.5 2.2-1.3 3.1-2.2.8-.9 1.5-2 1.9-3.2.5-1.2.7-2.5.7-3.9zM263.1 74.1h-2.4V50.7h6.9c1.1 0 2.2.1 3.2.3 1 .2 1.8.6 2.5 1.1s1.3 1.1 1.7 1.9c.4.8.6 1.8.6 2.9 0 .9-.2 1.6-.5 2.3-.3.7-.7 1.3-1.3 1.8-.5.5-1.2.9-1.9 1.2-.7.3-1.5.5-2.4.6l6.8 11.1h-2.9L266.9 63h-4v11.1zm0-13h4.1c1.9 0 3.4-.3 4.4-1 1-.7 1.6-1.7 1.6-3.1 0-.8-.1-1.4-.4-1.9-.3-.5-.7-1-1.2-1.3s-1.1-.6-1.8-.7c-.7-.2-1.5-.2-2.4-.2h-4.2v8.2zM292.1 70.1l7.9-19.3h3.6v23.4h-2.4V53.8h-.1l-8.4 20.3h-1.3L283 53.8h-.1v20.3h-2.4V50.7h3.6l8 19.4zM309.6 74.1H307l10.1-23.4h2.3l10 23.4h-2.6l-2.6-6.1h-12.1l-2.5 6.1zm3.4-8.3h10.3l-5.1-12.4-5.2 12.4zM338.4 74.1H336V52.9h-7.8v-2.1h18v2.1h-7.8v21.2zM352 74.1h-2.4V50.7h2.4v23.4zM381.4 62.4c0 1.8-.3 3.4-.9 4.9-.6 1.5-1.5 2.8-2.6 3.9s-2.4 1.9-3.9 2.6-3.1.9-4.8.9c-1.7 0-3.3-.3-4.8-.9s-2.8-1.5-3.9-2.6-1.9-2.4-2.6-3.9c-.6-1.5-.9-3.1-.9-4.9 0-1.8.3-3.4.9-4.9.6-1.5 1.5-2.8 2.6-3.9s2.4-1.9 3.9-2.6c1.5-.6 3.1-.9 4.8-.9 1.7 0 3.3.3 4.8.9 1.5.6 2.8 1.5 3.9 2.6s1.9 2.4 2.6 3.9c.5 1.5.9 3.1.9 4.9zm-2.6 0c0-1.4-.2-2.7-.7-3.9-.4-1.2-1.1-2.3-1.9-3.2-.8-.9-1.9-1.7-3.1-2.2s-2.5-.8-4-.8-2.8.3-4 .8-2.2 1.3-3.1 2.2c-.8.9-1.5 2-1.9 3.2s-.7 2.5-.7 3.9.2 2.7.7 3.9c.4 1.2 1.1 2.3 1.9 3.2s1.9 1.7 3.1 2.2c1.2.5 2.5.8 4 .8s2.8-.3 4-.8c1.2-.5 2.2-1.3 3.1-2.2.8-.9 1.5-2 1.9-3.2.5-1.2.7-2.5.7-3.9zM402.9 70.6l.1-19.9h2.4v23.4h-3L388.7 54h-.1v20.1h-2.4V50.7h3l13.7 19.9zM422.8 54.5c-.5-.7-1.2-1.3-1.9-1.7-.8-.4-1.7-.6-2.9-.6-.6 0-1.2.1-1.7.3-.6.2-1.1.4-1.6.8s-.9.8-1.2 1.4c-.3.6-.4 1.2-.4 1.9s.1 1.4.4 1.8c.3.5.7.9 1.1 1.2.5.3 1 .6 1.6.8.6.2 1.2.4 1.9.7.8.3 1.6.6 2.5.9.8.3 1.6.7 2.2 1.2.7.5 1.2 1.1 1.6 1.9.4.8.6 1.7.6 2.9s-.2 2.2-.7 3c-.4.8-1 1.5-1.7 2.1-.7.6-1.5 1-2.4 1.2-.9.3-1.8.4-2.8.4-.7 0-1.4-.1-2.1-.2-.7-.1-1.4-.4-2-.6s-1.2-.6-1.8-1.1c-.5-.4-1-.9-1.5-1.5l2-1.5c.5.8 1.2 1.5 2.1 2.1s2 .8 3.2.8c.6 0 1.2-.1 1.8-.3.6-.2 1.2-.5 1.7-.9s.9-.9 1.2-1.4c.3-.6.5-1.2.5-2s-.2-1.5-.5-2-.7-1-1.3-1.4c-.5-.4-1.1-.7-1.8-.9-.7-.2-1.4-.5-2.1-.7-.8-.2-1.5-.5-2.3-.8-.7-.3-1.4-.7-2-1.2-.6-.5-1.1-1.1-1.4-1.8-.4-.7-.5-1.6-.5-2.7s.2-2.1.7-2.9c.5-.8 1-1.5 1.8-2 .7-.5 1.5-.9 2.4-1.2.9-.2 1.7-.4 2.6-.4 1.6 0 2.9.3 4.1.8s2 1.2 2.5 2l-1.9 1.6zM200 107.3c-.4.6-.9 1.2-1.4 1.7-.6.5-1.2 1-1.9 1.4-.7.4-1.6.7-2.4 1-.9.2-1.9.4-2.9.4-1.8 0-3.4-.3-4.9-.9s-2.8-1.5-3.9-2.6-1.9-2.4-2.5-3.9c-.6-1.5-.9-3.1-.9-4.9 0-1.8.3-3.4.9-4.9.6-1.5 1.5-2.8 2.6-3.9s2.4-1.9 3.9-2.6c1.5-.6 3.1-.9 4.8-.9.9 0 1.7.1 2.5.3.8.2 1.6.4 2.3.8.7.3 1.4.7 2 1.2.6.5 1.1 1 1.5 1.5l-2 1.5c-.2-.4-.6-.7-1-1.1-.4-.4-.9-.7-1.4-1-.6-.3-1.2-.5-1.8-.7-.6-.2-1.3-.3-2.1-.3-1.5 0-2.9.3-4.1.8s-2.2 1.3-3.1 2.2c-.8.9-1.5 2-1.9 3.2-.4 1.2-.7 2.5-.7 3.9s.2 2.7.7 3.9c.5 1.2 1.1 2.3 1.9 3.2s1.9 1.7 3.1 2.2c1.2.5 2.5.8 4 .8 1.3 0 2.6-.3 3.8-.8s2.2-1.4 3-2.6l1.9 1.1zM226.8 99.4c0 1.8-.3 3.4-.9 4.9-.6 1.5-1.5 2.8-2.6 3.9s-2.4 1.9-3.9 2.6-3.1.9-4.8.9c-1.7 0-3.3-.3-4.8-.9s-2.8-1.5-3.9-2.6-1.9-2.4-2.6-3.9c-.6-1.5-.9-3.1-.9-4.9 0-1.8.3-3.4.9-4.9.6-1.5 1.5-2.8 2.6-3.9s2.4-1.9 3.9-2.6c1.5-.6 3.1-.9 4.8-.9 1.7 0 3.3.3 4.8.9 1.5.6 2.8 1.5 3.9 2.6s1.9 2.4 2.6 3.9c.6 1.5.9 3.1.9 4.9zm-2.5 0c0-1.4-.2-2.7-.7-3.9-.4-1.2-1.1-2.3-1.9-3.2-.8-.9-1.9-1.7-3.1-2.2s-2.5-.8-4-.8-2.8.3-4 .8-2.2 1.3-3.1 2.2c-.8.9-1.5 2-1.9 3.2s-.7 2.5-.7 3.9.2 2.7.7 3.9c.4 1.2 1.1 2.3 1.9 3.2s1.9 1.7 3.1 2.2c1.2.5 2.5.8 4 .8s2.8-.3 4-.8c1.2-.5 2.2-1.3 3.1-2.2.8-.9 1.5-2 1.9-3.2.5-1.2.7-2.5.7-3.9zM243.3 107.1l7.9-19.3h3.6v23.4h-2.4V90.8h-.1l-8.4 20.3h-1.3l-8.4-20.3h-.1v20.3h-2.4V87.7h3.6l8 19.4zM272.6 107.1l7.9-19.3h3.6v23.4h-2.4V90.8h-.1l-8.4 20.3h-1.3l-8.4-20.3h-.1v20.3H261V87.7h3.6l8 19.4zM298.9 111.7c-1.8 0-3.2-.3-4.3-.9s-2-1.4-2.7-2.3-1.1-1.9-1.4-3-.4-2.1-.4-3.1V87.7h2.4v14.4c0 .9.1 1.9.3 2.8.2.9.6 1.7 1.1 2.4.5.7 1.1 1.3 2 1.7.8.4 1.8.6 3 .6s2.2-.2 3-.6c.8-.4 1.5-1 2-1.7s.9-1.5 1.1-2.4c.2-.9.3-1.8.3-2.8V87.7h2.4v14.7c0 1-.1 2-.4 3.1s-.7 2.1-1.4 3-1.6 1.7-2.7 2.3c-1.2.6-2.6.9-4.3.9zM330.2 107.6l.1-19.9h2.4v23.4h-3L316.1 91h-.1v20.1h-2.4V87.7h3l13.6 19.9zM341.3 111.1h-2.4V87.7h2.4v23.4zM367.1 107.3c-.4.6-.9 1.2-1.4 1.7-.6.5-1.2 1-1.9 1.4-.7.4-1.6.7-2.4 1-.9.2-1.9.4-2.9.4-1.8 0-3.4-.3-4.9-.9s-2.8-1.5-3.9-2.6-1.9-2.4-2.5-3.9c-.6-1.5-.9-3.1-.9-4.9 0-1.8.3-3.4.9-4.9.6-1.5 1.5-2.8 2.6-3.9s2.4-1.9 3.9-2.6c1.5-.6 3.1-.9 4.8-.9.9 0 1.7.1 2.5.3.8.2 1.6.4 2.3.8.7.3 1.4.7 2 1.2.6.5 1.1 1 1.5 1.5l-2 1.5c-.2-.4-.6-.7-1-1.1-.4-.4-.9-.7-1.4-1-.6-.3-1.2-.5-1.8-.7-.6-.2-1.3-.3-2.1-.3-1.5 0-2.9.3-4.1.8s-2.2 1.3-3.1 2.2c-.8.9-1.5 2-1.9 3.2-.4 1.2-.7 2.5-.7 3.9s.2 2.7.7 3.9c.5 1.2 1.1 2.3 1.9 3.2s1.9 1.7 3.1 2.2c1.2.5 2.5.8 4 .8 1.3 0 2.6-.3 3.8-.8s2.2-1.4 3-2.6l1.9 1.1zM370.7 111.1h-2.6l10.1-23.4h2.3l10 23.4h-2.6l-2.6-6.1h-12.1l-2.5 6.1zm3.4-8.3h10.3l-5.1-12.4-5.2 12.4zM399.4 111.1H397V89.9h-7.8v-2.1h18v2.1h-7.8v21.2zM413.1 111.1h-2.4V87.7h2.4v23.4zM442.4 99.4c0 1.8-.3 3.4-.9 4.9-.6 1.5-1.5 2.8-2.6 3.9s-2.4 1.9-3.9 2.6-3.1.9-4.8.9c-1.7 0-3.3-.3-4.8-.9s-2.8-1.5-3.9-2.6-1.9-2.4-2.6-3.9c-.6-1.5-.9-3.1-.9-4.9 0-1.8.3-3.4.9-4.9.6-1.5 1.5-2.8 2.6-3.9s2.4-1.9 3.9-2.6c1.5-.6 3.1-.9 4.8-.9 1.7 0 3.3.3 4.8.9 1.5.6 2.8 1.5 3.9 2.6s1.9 2.4 2.6 3.9c.6 1.5.9 3.1.9 4.9zm-2.5 0c0-1.4-.2-2.7-.7-3.9-.4-1.2-1.1-2.3-1.9-3.2-.8-.9-1.9-1.7-3.1-2.2s-2.5-.8-4-.8-2.8.3-4 .8-2.2 1.3-3.1 2.2c-.8.9-1.5 2-1.9 3.2s-.7 2.5-.7 3.9.2 2.7.7 3.9c.4 1.2 1.1 2.3 1.9 3.2s1.9 1.7 3.1 2.2c1.2.5 2.5.8 4 .8s2.8-.3 4-.8c1.2-.5 2.2-1.3 3.1-2.2.8-.9 1.5-2 1.9-3.2.5-1.2.7-2.5.7-3.9zM464 107.6l.1-19.9h2.4v23.4h-3L449.8 91h-.1v20.1h-2.4V87.7h3l13.7 19.9zM180.2 148.1h-2.6l10.1-23.4h2.3l10 23.4h-2.6l-2.6-6.1h-12.1l-2.5 6.1zm3.4-8.3h10.3l-5.1-12.4-5.2 12.4zM205.8 148.1h-2.4v-23.4h6.9c1.1 0 2.2.1 3.2.3 1 .2 1.8.6 2.5 1.1s1.3 1.1 1.7 1.9c.4.8.6 1.8.6 2.9 0 .9-.2 1.6-.5 2.3-.3.7-.7 1.3-1.3 1.8-.5.5-1.2.9-1.9 1.2-.7.3-1.5.5-2.4.6l6.8 11.1h-2.9l-6.5-10.9h-4v11.1zm0-13h4.1c1.9 0 3.4-.3 4.4-1 1-.7 1.6-1.7 1.6-3.1 0-.8-.1-1.4-.4-1.9-.3-.5-.7-1-1.2-1.3s-1.1-.6-1.8-.7c-.7-.2-1.5-.2-2.4-.2h-4.2v8.2zM230.3 148.1h-2.4v-21.3h-7.8v-2.1h18v2.1h-7.8v21.3zM253 128.5c-.5-.7-1.2-1.3-1.9-1.7s-1.7-.6-2.9-.6c-.6 0-1.2.1-1.7.3-.6.2-1.1.4-1.6.8s-.9.8-1.2 1.4-.4 1.2-.4 1.9.1 1.4.4 1.8.7.9 1.1 1.2 1 .6 1.6.8 1.2.4 1.9.7c.8.3 1.6.6 2.5.9.8.3 1.6.7 2.2 1.2.7.5 1.2 1.1 1.6 1.9.4.8.6 1.7.6 2.9s-.2 2.2-.7 3c-.4.8-1 1.5-1.7 2.1-.7.6-1.5 1-2.4 1.2-.9.3-1.8.4-2.8.4-.7 0-1.4-.1-2.1-.2-.7-.1-1.4-.4-2-.6-.6-.3-1.2-.6-1.8-1.1-.5-.4-1-.9-1.5-1.5l2-1.5c.5.8 1.2 1.5 2.1 2.1.9.6 2 .8 3.2.8.6 0 1.2-.1 1.8-.3.6-.2 1.2-.5 1.7-.9s.9-.9 1.2-1.4c.3-.6.5-1.2.5-2s-.2-1.5-.5-2-.7-1-1.3-1.4c-.5-.4-1.1-.7-1.8-.9-.7-.2-1.4-.5-2.1-.7-.8-.2-1.5-.5-2.3-.8-.7-.3-1.4-.7-2-1.2-.6-.5-1.1-1.1-1.4-1.8-.4-.7-.5-1.6-.5-2.7s.2-2.1.7-2.9c.5-.8 1-1.5 1.8-2 .7-.5 1.5-.9 2.4-1.2.9-.2 1.7-.4 2.6-.4 1.6 0 2.9.3 4.1.8 1.1.6 2 1.2 2.5 2l-1.9 1.6z"/><g><path d="M70.1 75.3H8.8c-2.4 0-4.4-2-4.4-4.4V9.7c0-2.4 2-4.4 4.4-4.4H70c2.4 0 4.4 2 4.4 4.4v61.2c0 2.5-1.9 4.4-4.3 4.4z" style="fill:#030093"/><path d="M148.1 75.3H86.8c-2.4 0-4.4-2-4.4-4.4V9.7c0-2.4 2-4.4 4.4-4.4H148c2.4 0 4.4 2 4.4 4.4v61.2c0 2.5-1.9 4.4-4.3 4.4z" style="fill:#ff8400"/><path d="M70.1 154H8.8c-2.4 0-4.4-2-4.4-4.4V88.4c0-2.4 2-4.4 4.4-4.4H70c2.4 0 4.4 2 4.4 4.4v61.2c0 2.4-1.9 4.4-4.3 4.4z" style="fill:#e00041"/><path d="M148.1 154H86.8c-2.4 0-4.4-2-4.4-4.4V88.4c0-2.4 2-4.4 4.4-4.4H148c2.4 0 4.4 2 4.4 4.4v61.2c0 2.4-1.9 4.4-4.3 4.4z" style="fill:#759b00"/><path class="st4" d="m48.9 55 .2-20.8H49L41.3 55h-5l-7.4-20.8h-.1L29 55h-6.7V25.6h10.1l6.7 18.8h.2l6.4-18.8H56V55h-7.1zM125.1 133.5l-2.3-5.8h-11.4l-2.2 5.8h-7.7l12.3-29.4h6.9l12.2 29.4h-7.8zm-7.8-21.5-3.7 10.1h7.4l-3.7-10.1zM47.2 133c-1.9.9-4.1 1.3-6.6 1.3-2.3 0-4.4-.4-6.3-1.1-1.9-.7-3.6-1.8-5-3.2-1.4-1.4-2.5-3-3.3-4.9-.8-1.9-1.2-4-1.2-6.3s.4-4.5 1.2-6.4c.8-1.9 1.9-3.5 3.4-4.9 1.4-1.3 3.1-2.4 5.1-3.1 1.9-.7 4-1.1 6.3-1.1 2.1 0 4.1.4 6.1 1.1 2 .7 3.6 1.8 4.9 3.2l-4.8 4.8c-.7-.9-1.5-1.6-2.6-2-1.1-.4-2.2-.7-3.3-.7-1.2 0-2.4.2-3.4.7-1 .5-1.9 1.1-2.7 1.9-.7.8-1.3 1.7-1.7 2.8-.4 1.1-.6 2.3-.6 3.6 0 1.3.2 2.5.6 3.6.4 1.1 1 2.1 1.7 2.8.7.8 1.6 1.4 2.6 1.8 1 .4 2.1.7 3.4.7 1.4 0 2.6-.3 3.7-.8 1.1-.6 1.9-1.3 2.5-2.2l4.9 4.6c-1.4 1.8-3 3-4.9 3.8zM113.1 55V25.6h7.1V55h-7.1z"/></g></svg>
