<?xml version="1.0" encoding="utf-8"?>
<!-- Generator: Adobe Illustrator 26.0.2, SVG Export Plug-In . SVG Version: 6.00 Build 0)  -->
<svg version="1.1" id="Calque_1" xmlns="http://www.w3.org/2000/svg" xmlns:xlink="http://www.w3.org/1999/xlink" x="0px" y="0px"
	 width="474.2px" height="159.4px" viewBox="0 0 474.2 159.4" style="enable-background:new 0 0 474.2 159.4;" xml:space="preserve"
	>
<style type="text/css">
	.st0{fill:#030093;}
	.st1{fill:#FF8400;}
	.st2{fill:#E00041;}
	.st3{fill:#759B00;}
	.st4{fill:#FFFFFF;}
</style>
<g>
	<path d="M191.9,33.1L191.9,33.1l7.9-19.3h3.6v23.4H201V16.8h-0.1l-8.4,20.3h-1.3l-8.4-20.3h-0.1v20.3h-2.4V13.7h3.6L191.9,33.1z"/>
	<path d="M212,35h12.5v2.1h-14.9V13.7h14.5v2.1H212v8h11.3V26H212V35z M217.2,11.9h-1.9l3.3-4.8h3L217.2,11.9z"/>
	<path d="M229.1,13.7h7.8c1.5,0,2.9,0.2,4.4,0.7c1.5,0.5,2.8,1.2,4,2.2s2.1,2.2,2.9,3.7s1.1,3.2,1.1,5.1c0,2-0.4,3.7-1.1,5.1
		c-0.7,1.5-1.7,2.7-2.9,3.6c-1.2,1-2.5,1.7-4,2.2c-1.5,0.5-2.9,0.7-4.4,0.7h-7.8V13.7z M231.5,35h4.7c1.8,0,3.3-0.3,4.6-0.8
		c1.3-0.5,2.4-1.3,3.2-2.2c0.9-0.9,1.5-1.9,1.9-3.1c0.4-1.1,0.6-2.3,0.6-3.5c0-1.2-0.2-2.4-0.6-3.5c-0.4-1.1-1.1-2.2-1.9-3.1
		c-0.9-0.9-1.9-1.6-3.2-2.2c-1.3-0.5-2.8-0.8-4.6-0.8h-4.7V35z"/>
	<path d="M256.5,37.1h-2.4V13.7h2.4V37.1z"/>
	<path d="M262.5,37.1h-2.6L270,13.7h2.3l10,23.4h-2.6l-2.6-6.1h-12.1L262.5,37.1z M266,28.8h10.3l-5.1-12.4L266,28.8z"/>
	<path d="M291.3,37.1h-2.4V15.9h-7.8v-2.1h18v2.1h-7.8V37.1z"/>
	<path d="M305,37.1h-2.4V13.7h2.4V37.1z"/>
	<path d="M334.3,25.4c0,1.8-0.3,3.4-0.9,4.9c-0.6,1.5-1.5,2.8-2.6,3.9c-1.1,1.1-2.4,1.9-3.9,2.6s-3.1,0.9-4.8,0.9
		c-1.7,0-3.3-0.3-4.8-0.9s-2.8-1.5-3.9-2.6c-1.1-1.1-1.9-2.4-2.6-3.9c-0.6-1.5-0.9-3.1-0.9-4.9c0-1.8,0.3-3.4,0.9-4.9
		c0.6-1.5,1.5-2.8,2.6-3.9c1.1-1.1,2.4-1.9,3.9-2.6c1.5-0.6,3.1-0.9,4.8-0.9c1.7,0,3.3,0.3,4.8,0.9c1.5,0.6,2.8,1.5,3.9,2.6
		s1.9,2.4,2.6,3.9C334,22,334.3,23.6,334.3,25.4z M331.8,25.4c0-1.4-0.2-2.7-0.7-3.9c-0.4-1.2-1.1-2.3-1.9-3.2
		c-0.8-0.9-1.9-1.7-3.1-2.2s-2.5-0.8-4-0.8c-1.5,0-2.8,0.3-4,0.8s-2.2,1.3-3.1,2.2c-0.8,0.9-1.5,2-1.9,3.2s-0.7,2.5-0.7,3.9
		c0,1.4,0.2,2.7,0.7,3.9c0.4,1.2,1.1,2.3,1.9,3.2s1.9,1.7,3.1,2.2c1.2,0.5,2.5,0.8,4,0.8c1.5,0,2.8-0.3,4-0.8
		c1.2-0.5,2.2-1.3,3.1-2.2c0.8-0.9,1.5-2,1.9-3.2C331.6,28.1,331.8,26.8,331.8,25.4z"/>
	<path d="M355.8,33.6L355.8,33.6l0.1-19.9h2.4v23.4h-3L341.7,17h-0.1v20.1h-2.4V13.7h3L355.8,33.6z"/>
	<path d="M375.8,17.5c-0.5-0.7-1.2-1.3-1.9-1.7c-0.8-0.4-1.7-0.6-2.9-0.6c-0.6,0-1.2,0.1-1.7,0.3c-0.6,0.2-1.1,0.4-1.6,0.8
		c-0.5,0.4-0.9,0.8-1.2,1.4c-0.3,0.6-0.4,1.2-0.4,1.9c0,0.7,0.1,1.4,0.4,1.8c0.3,0.5,0.7,0.9,1.1,1.2c0.5,0.3,1,0.6,1.6,0.8
		c0.6,0.2,1.2,0.4,1.9,0.7c0.8,0.3,1.6,0.6,2.5,0.9c0.8,0.3,1.6,0.7,2.2,1.2c0.7,0.5,1.2,1.1,1.6,1.9c0.4,0.8,0.6,1.7,0.6,2.9
		c0,1.2-0.2,2.2-0.7,3c-0.4,0.8-1,1.5-1.7,2.1c-0.7,0.6-1.5,1-2.4,1.2c-0.9,0.3-1.8,0.4-2.8,0.4c-0.7,0-1.4-0.1-2.1-0.2
		c-0.7-0.1-1.4-0.4-2-0.6s-1.2-0.6-1.8-1.1c-0.5-0.4-1-0.9-1.5-1.5l2-1.5c0.5,0.8,1.2,1.5,2.1,2.1s2,0.8,3.2,0.8
		c0.6,0,1.2-0.1,1.8-0.3c0.6-0.2,1.2-0.5,1.7-0.9s0.9-0.9,1.2-1.4c0.3-0.6,0.5-1.2,0.5-2c0-0.8-0.2-1.5-0.5-2
		c-0.3-0.5-0.7-1-1.3-1.4c-0.5-0.4-1.1-0.7-1.8-0.9c-0.7-0.2-1.4-0.5-2.1-0.7c-0.8-0.2-1.5-0.5-2.3-0.8c-0.7-0.3-1.4-0.7-2-1.2
		c-0.6-0.5-1.1-1.1-1.4-1.8c-0.4-0.7-0.5-1.6-0.5-2.7c0-1.1,0.2-2.1,0.7-2.9c0.5-0.8,1-1.5,1.8-2c0.7-0.5,1.5-0.9,2.4-1.2
		c0.9-0.2,1.7-0.4,2.6-0.4c1.6,0,2.9,0.3,4.1,0.8s2,1.2,2.5,2L375.8,17.5z"/>
	<path d="M182.7,74.1h-2.4V50.7h2.4V74.1z"/>
	<path d="M205.5,70.6L205.5,70.6l0.1-19.9h2.4v23.4h-3L191.4,54h-0.1v20.1h-2.4V50.7h3L205.5,70.6z"/>
	<path d="M216.5,74.1h-2.4V50.7h14.1v2.1h-11.7v8.1h10.9v2.1h-10.9V74.1z"/>
	<path d="M255.8,62.4c0,1.8-0.3,3.4-0.9,4.9c-0.6,1.5-1.5,2.8-2.6,3.9c-1.1,1.1-2.4,1.9-3.9,2.6s-3.1,0.9-4.8,0.9
		c-1.7,0-3.3-0.3-4.8-0.9s-2.8-1.5-3.9-2.6c-1.1-1.1-1.9-2.4-2.6-3.9c-0.6-1.5-0.9-3.1-0.9-4.9c0-1.8,0.3-3.4,0.9-4.9
		c0.6-1.5,1.5-2.8,2.6-3.9c1.1-1.1,2.4-1.9,3.9-2.6c1.5-0.6,3.1-0.9,4.8-0.9c1.7,0,3.3,0.3,4.8,0.9c1.5,0.6,2.8,1.5,3.9,2.6
		s1.9,2.4,2.6,3.9C255.5,59,255.8,60.6,255.8,62.4z M253.3,62.4c0-1.4-0.2-2.7-0.7-3.9c-0.4-1.2-1.1-2.3-1.9-3.2
		c-0.8-0.9-1.9-1.7-3.1-2.2s-2.5-0.8-4-0.8c-1.5,0-2.8,0.3-4,0.8s-2.2,1.3-3.1,2.2c-0.8,0.9-1.5,2-1.9,3.2s-0.7,2.5-0.7,3.9
		c0,1.4,0.2,2.7,0.7,3.9c0.4,1.2,1.1,2.3,1.9,3.2s1.9,1.7,3.1,2.2c1.2,0.5,2.5,0.8,4,0.8c1.5,0,2.8-0.3,4-0.8
		c1.2-0.5,2.2-1.3,3.1-2.2c0.8-0.9,1.5-2,1.9-3.2C253.1,65.1,253.3,63.8,253.3,62.4z"/>
	<path d="M263.1,74.1h-2.4V50.7h6.9c1.1,0,2.2,0.1,3.2,0.3c1,0.2,1.8,0.6,2.5,1.1s1.3,1.1,1.7,1.9c0.4,0.8,0.6,1.8,0.6,2.9
		c0,0.9-0.2,1.6-0.5,2.3c-0.3,0.7-0.7,1.3-1.3,1.8c-0.5,0.5-1.2,0.9-1.9,1.2c-0.7,0.3-1.5,0.5-2.4,0.6l6.8,11.1h-2.9l-6.5-10.9h-4
		V74.1z M263.1,61.1h4.1c1.9,0,3.4-0.3,4.4-1c1-0.7,1.6-1.7,1.6-3.1c0-0.8-0.1-1.4-0.4-1.9c-0.3-0.5-0.7-1-1.2-1.3s-1.1-0.6-1.8-0.7
		c-0.7-0.2-1.5-0.2-2.4-0.2h-4.2V61.1z"/>
	<path d="M292.1,70.1L292.1,70.1l7.9-19.3h3.6v23.4h-2.4V53.8h-0.1l-8.4,20.3h-1.3l-8.4-20.3h-0.1v20.3h-2.4V50.7h3.6L292.1,70.1z"
		/>
	<path d="M309.6,74.1H307l10.1-23.4h2.3l10,23.4h-2.6l-2.6-6.1h-12.1L309.6,74.1z M313,65.8h10.3l-5.1-12.4L313,65.8z"/>
	<path d="M338.4,74.1H336V52.9h-7.8v-2.1h18v2.1h-7.8V74.1z"/>
	<path d="M352,74.1h-2.4V50.7h2.4V74.1z"/>
	<path d="M381.4,62.4c0,1.8-0.3,3.4-0.9,4.9c-0.6,1.5-1.5,2.8-2.6,3.9c-1.1,1.1-2.4,1.9-3.9,2.6s-3.1,0.9-4.8,0.9
		c-1.7,0-3.3-0.3-4.8-0.9s-2.8-1.5-3.9-2.6c-1.1-1.1-1.9-2.4-2.6-3.9c-0.6-1.5-0.9-3.1-0.9-4.9c0-1.8,0.3-3.4,0.9-4.9
		c0.6-1.5,1.5-2.8,2.6-3.9c1.1-1.1,2.4-1.9,3.9-2.6c1.5-0.6,3.1-0.9,4.8-0.9c1.7,0,3.3,0.3,4.8,0.9c1.5,0.6,2.8,1.5,3.9,2.6
		s1.9,2.4,2.6,3.9C381,59,381.4,60.6,381.4,62.4z M378.8,62.4c0-1.4-0.2-2.7-0.7-3.9c-0.4-1.2-1.1-2.3-1.9-3.2
		c-0.8-0.9-1.9-1.7-3.1-2.2s-2.5-0.8-4-0.8c-1.5,0-2.8,0.3-4,0.8s-2.2,1.3-3.1,2.2c-0.8,0.9-1.5,2-1.9,3.2s-0.7,2.5-0.7,3.9
		c0,1.4,0.2,2.7,0.7,3.9c0.4,1.2,1.1,2.3,1.9,3.2s1.9,1.7,3.1,2.2c1.2,0.5,2.5,0.8,4,0.8c1.5,0,2.8-0.3,4-0.8
		c1.2-0.5,2.2-1.3,3.1-2.2c0.8-0.9,1.5-2,1.9-3.2C378.6,65.1,378.8,63.8,378.8,62.4z"/>
	<path d="M402.9,70.6L402.9,70.6l0.1-19.9h2.4v23.4h-3L388.7,54h-0.1v20.1h-2.4V50.7h3L402.9,70.6z"/>
	<path d="M422.8,54.5c-0.5-0.7-1.2-1.3-1.9-1.7c-0.8-0.4-1.7-0.6-2.9-0.6c-0.6,0-1.2,0.1-1.7,0.3c-0.6,0.2-1.1,0.4-1.6,0.8
		c-0.5,0.4-0.9,0.8-1.2,1.4c-0.3,0.6-0.4,1.2-0.4,1.9c0,0.7,0.1,1.4,0.4,1.8c0.3,0.5,0.7,0.9,1.1,1.2c0.5,0.3,1,0.6,1.6,0.8
		c0.6,0.2,1.2,0.4,1.9,0.7c0.8,0.3,1.6,0.6,2.5,0.9c0.8,0.3,1.6,0.7,2.2,1.2c0.7,0.5,1.2,1.1,1.6,1.9c0.4,0.8,0.6,1.7,0.6,2.9
		c0,1.2-0.2,2.2-0.7,3c-0.4,0.8-1,1.5-1.7,2.1c-0.7,0.6-1.5,1-2.4,1.2c-0.9,0.3-1.8,0.4-2.8,0.4c-0.7,0-1.4-0.1-2.1-0.2
		c-0.7-0.1-1.4-0.4-2-0.6s-1.2-0.6-1.8-1.1c-0.5-0.4-1-0.9-1.5-1.5l2-1.5c0.5,0.8,1.2,1.5,2.1,2.1s2,0.8,3.2,0.8
		c0.6,0,1.2-0.1,1.8-0.3c0.6-0.2,1.2-0.5,1.7-0.9s0.9-0.9,1.2-1.4c0.3-0.6,0.5-1.2,0.5-2c0-0.8-0.2-1.5-0.5-2
		c-0.3-0.5-0.7-1-1.3-1.4c-0.5-0.4-1.1-0.7-1.8-0.9c-0.7-0.2-1.4-0.5-2.1-0.7c-0.8-0.2-1.5-0.5-2.3-0.8c-0.7-0.3-1.4-0.7-2-1.2
		c-0.6-0.5-1.1-1.1-1.4-1.8c-0.4-0.7-0.5-1.6-0.5-2.7c0-1.1,0.2-2.1,0.7-2.9c0.5-0.8,1-1.5,1.8-2c0.7-0.5,1.5-0.9,2.4-1.2
		c0.9-0.2,1.7-0.4,2.6-0.4c1.6,0,2.9,0.3,4.1,0.8s2,1.2,2.5,2L422.8,54.5z"/>
	<path d="M200,107.3c-0.4,0.6-0.9,1.2-1.4,1.7c-0.6,0.5-1.2,1-1.9,1.4c-0.7,0.4-1.6,0.7-2.4,1c-0.9,0.2-1.9,0.4-2.9,0.4
		c-1.8,0-3.4-0.3-4.9-0.9s-2.8-1.5-3.9-2.6c-1.1-1.1-1.9-2.4-2.5-3.9c-0.6-1.5-0.9-3.1-0.9-4.9c0-1.8,0.3-3.4,0.9-4.9
		c0.6-1.5,1.5-2.8,2.6-3.9c1.1-1.1,2.4-1.9,3.9-2.6c1.5-0.6,3.1-0.9,4.8-0.9c0.9,0,1.7,0.1,2.5,0.3c0.8,0.2,1.6,0.4,2.3,0.8
		c0.7,0.3,1.4,0.7,2,1.2c0.6,0.5,1.1,1,1.5,1.5l-2,1.5c-0.2-0.4-0.6-0.7-1-1.1c-0.4-0.4-0.9-0.7-1.4-1c-0.6-0.3-1.2-0.5-1.8-0.7
		c-0.6-0.2-1.3-0.3-2.1-0.3c-1.5,0-2.9,0.3-4.1,0.8s-2.2,1.3-3.1,2.2c-0.8,0.9-1.5,2-1.9,3.2c-0.4,1.2-0.7,2.5-0.7,3.9
		c0,1.4,0.2,2.7,0.7,3.9c0.5,1.2,1.1,2.3,1.9,3.2s1.9,1.7,3.1,2.2c1.2,0.5,2.5,0.8,4,0.8c1.3,0,2.6-0.3,3.8-0.8s2.2-1.4,3-2.6
		L200,107.3z"/>
	<path d="M226.8,99.4c0,1.8-0.3,3.4-0.9,4.9c-0.6,1.5-1.5,2.8-2.6,3.9c-1.1,1.1-2.4,1.9-3.9,2.6s-3.1,0.9-4.8,0.9
		c-1.7,0-3.3-0.3-4.8-0.9s-2.8-1.5-3.9-2.6c-1.1-1.1-1.9-2.4-2.6-3.9c-0.6-1.5-0.9-3.1-0.9-4.9c0-1.8,0.3-3.4,0.9-4.9
		c0.6-1.5,1.5-2.8,2.6-3.9c1.1-1.1,2.4-1.9,3.9-2.6c1.5-0.6,3.1-0.9,4.8-0.9c1.7,0,3.3,0.3,4.8,0.9c1.5,0.6,2.8,1.5,3.9,2.6
		s1.9,2.4,2.6,3.9C226.5,96,226.8,97.6,226.8,99.4z M224.3,99.4c0-1.4-0.2-2.7-0.7-3.9c-0.4-1.2-1.1-2.3-1.9-3.2
		c-0.8-0.9-1.9-1.7-3.1-2.2s-2.5-0.8-4-0.8c-1.5,0-2.8,0.3-4,0.8s-2.2,1.3-3.1,2.2c-0.8,0.9-1.5,2-1.9,3.2s-0.7,2.5-0.7,3.9
		c0,1.4,0.2,2.7,0.7,3.9c0.4,1.2,1.1,2.3,1.9,3.2s1.9,1.7,3.1,2.2c1.2,0.5,2.5,0.8,4,0.8c1.5,0,2.8-0.3,4-0.8
		c1.2-0.5,2.2-1.3,3.1-2.2c0.8-0.9,1.5-2,1.9-3.2C224.1,102.1,224.3,100.8,224.3,99.4z"/>
	<path d="M243.3,107.1L243.3,107.1l7.9-19.3h3.6v23.4h-2.4V90.8h-0.1l-8.4,20.3h-1.3l-8.4-20.3h-0.1v20.3h-2.4V87.7h3.6L243.3,107.1
		z"/>
	<path d="M272.6,107.1L272.6,107.1l7.9-19.3h3.6v23.4h-2.4V90.8h-0.1l-8.4,20.3h-1.3l-8.4-20.3h-0.1v20.3H261V87.7h3.6L272.6,107.1z
		"/>
	<path d="M298.9,111.7c-1.8,0-3.2-0.3-4.3-0.9s-2-1.4-2.7-2.3s-1.1-1.9-1.4-3s-0.4-2.1-0.4-3.1V87.7h2.4v14.4c0,0.9,0.1,1.9,0.3,2.8
		c0.2,0.9,0.6,1.7,1.1,2.4c0.5,0.7,1.1,1.3,2,1.7c0.8,0.4,1.8,0.6,3,0.6c1.2,0,2.2-0.2,3-0.6c0.8-0.4,1.5-1,2-1.7
		c0.5-0.7,0.9-1.5,1.1-2.4c0.2-0.9,0.3-1.8,0.3-2.8V87.7h2.4v14.7c0,1-0.1,2-0.4,3.1s-0.7,2.1-1.4,3s-1.6,1.7-2.7,2.3
		C302,111.4,300.6,111.7,298.9,111.7z"/>
	<path d="M330.2,107.6L330.2,107.6l0.1-19.9h2.4v23.4h-3L316.1,91H316v20.1h-2.4V87.7h3L330.2,107.6z"/>
	<path d="M341.3,111.1h-2.4V87.7h2.4V111.1z"/>
	<path d="M367.1,107.3c-0.4,0.6-0.9,1.2-1.4,1.7c-0.6,0.5-1.2,1-1.9,1.4c-0.7,0.4-1.6,0.7-2.4,1c-0.9,0.2-1.9,0.4-2.9,0.4
		c-1.8,0-3.4-0.3-4.9-0.9s-2.8-1.5-3.9-2.6c-1.1-1.1-1.9-2.4-2.5-3.9c-0.6-1.5-0.9-3.1-0.9-4.9c0-1.8,0.3-3.4,0.9-4.9
		c0.6-1.5,1.5-2.8,2.6-3.9c1.1-1.1,2.4-1.9,3.9-2.6c1.5-0.6,3.1-0.9,4.8-0.9c0.9,0,1.7,0.1,2.5,0.3c0.8,0.2,1.6,0.4,2.3,0.8
		c0.7,0.3,1.4,0.7,2,1.2c0.6,0.5,1.1,1,1.5,1.5l-2,1.5c-0.2-0.4-0.6-0.7-1-1.1c-0.4-0.4-0.9-0.7-1.4-1c-0.6-0.3-1.2-0.5-1.8-0.7
		c-0.6-0.2-1.3-0.3-2.1-0.3c-1.5,0-2.9,0.3-4.1,0.8s-2.2,1.3-3.1,2.2c-0.8,0.9-1.5,2-1.9,3.2c-0.4,1.2-0.7,2.5-0.7,3.9
		c0,1.4,0.2,2.7,0.7,3.9c0.5,1.2,1.1,2.3,1.9,3.2s1.9,1.7,3.1,2.2c1.2,0.5,2.5,0.8,4,0.8c1.3,0,2.6-0.3,3.8-0.8s2.2-1.4,3-2.6
		L367.1,107.3z"/>
	<path d="M370.7,111.1h-2.6l10.1-23.4h2.3l10,23.4h-2.6l-2.6-6.1h-12.1L370.7,111.1z M374.1,102.8h10.3l-5.1-12.4L374.1,102.8z"/>
	<path d="M399.4,111.1h-2.4V89.9h-7.8v-2.1h18v2.1h-7.8V111.1z"/>
	<path d="M413.1,111.1h-2.4V87.7h2.4V111.1z"/>
	<path d="M442.4,99.4c0,1.8-0.3,3.4-0.9,4.9c-0.6,1.5-1.5,2.8-2.6,3.9c-1.1,1.1-2.4,1.9-3.9,2.6s-3.1,0.9-4.8,0.9
		c-1.7,0-3.3-0.3-4.8-0.9s-2.8-1.5-3.9-2.6c-1.1-1.1-1.9-2.4-2.6-3.9c-0.6-1.5-0.9-3.1-0.9-4.9c0-1.8,0.3-3.4,0.9-4.9
		c0.6-1.5,1.5-2.8,2.6-3.9c1.1-1.1,2.4-1.9,3.9-2.6c1.5-0.6,3.1-0.9,4.8-0.9c1.7,0,3.3,0.3,4.8,0.9c1.5,0.6,2.8,1.5,3.9,2.6
		s1.9,2.4,2.6,3.9C442.1,96,442.4,97.6,442.4,99.4z M439.9,99.4c0-1.4-0.2-2.7-0.7-3.9c-0.4-1.2-1.1-2.3-1.9-3.2
		c-0.8-0.9-1.9-1.7-3.1-2.2s-2.5-0.8-4-0.8c-1.5,0-2.8,0.3-4,0.8s-2.2,1.3-3.1,2.2c-0.8,0.9-1.5,2-1.9,3.2s-0.7,2.5-0.7,3.9
		c0,1.4,0.2,2.7,0.7,3.9c0.4,1.2,1.1,2.3,1.9,3.2s1.9,1.7,3.1,2.2c1.2,0.5,2.5,0.8,4,0.8c1.5,0,2.8-0.3,4-0.8
		c1.2-0.5,2.2-1.3,3.1-2.2c0.8-0.9,1.5-2,1.9-3.2C439.7,102.1,439.9,100.8,439.9,99.4z"/>
	<path d="M464,107.6L464,107.6l0.1-19.9h2.4v23.4h-3L449.8,91h-0.1v20.1h-2.4V87.7h3L464,107.6z"/>
	<path d="M180.2,148.1h-2.6l10.1-23.4h2.3l10,23.4h-2.6l-2.6-6.1h-12.1L180.2,148.1z M183.6,139.8h10.3l-5.1-12.4L183.6,139.8z"/>
	<path d="M205.8,148.1h-2.4v-23.4h6.9c1.1,0,2.2,0.1,3.2,0.3c1,0.2,1.8,0.6,2.5,1.1s1.3,1.1,1.7,1.9c0.4,0.8,0.6,1.8,0.6,2.9
		c0,0.9-0.2,1.6-0.5,2.3c-0.3,0.7-0.7,1.3-1.3,1.8c-0.5,0.5-1.2,0.9-1.9,1.2c-0.7,0.3-1.5,0.5-2.4,0.6l6.8,11.1h-2.9l-6.5-10.9h-4
		V148.1z M205.8,135.1h4.1c1.9,0,3.4-0.3,4.4-1c1-0.7,1.6-1.7,1.6-3.1c0-0.8-0.1-1.4-0.4-1.9c-0.3-0.5-0.7-1-1.2-1.3
		s-1.1-0.6-1.8-0.7c-0.7-0.2-1.5-0.2-2.4-0.2h-4.2V135.1z"/>
	<path d="M230.3,148.1h-2.4v-21.3h-7.8v-2.1h18v2.1h-7.8V148.1z"/>
	<path d="M253,128.5c-0.5-0.7-1.2-1.3-1.9-1.7s-1.7-0.6-2.9-0.6c-0.6,0-1.2,0.1-1.7,0.3c-0.6,0.2-1.1,0.4-1.6,0.8
		c-0.5,0.4-0.9,0.8-1.2,1.4s-0.4,1.2-0.4,1.9c0,0.7,0.1,1.4,0.4,1.8s0.7,0.9,1.1,1.2s1,0.6,1.6,0.8s1.2,0.4,1.9,0.7
		c0.8,0.3,1.6,0.6,2.5,0.9c0.8,0.3,1.6,0.7,2.2,1.2c0.7,0.5,1.2,1.1,1.6,1.9c0.4,0.8,0.6,1.7,0.6,2.9c0,1.2-0.2,2.2-0.7,3
		c-0.4,0.8-1,1.5-1.7,2.1c-0.7,0.6-1.5,1-2.4,1.2c-0.9,0.3-1.8,0.4-2.8,0.4c-0.7,0-1.4-0.1-2.1-0.2c-0.7-0.1-1.4-0.4-2-0.6
		c-0.6-0.3-1.2-0.6-1.8-1.1c-0.5-0.4-1-0.9-1.5-1.5l2-1.5c0.5,0.8,1.2,1.5,2.1,2.1c0.9,0.6,2,0.8,3.2,0.8c0.6,0,1.2-0.1,1.8-0.3
		c0.6-0.2,1.2-0.5,1.7-0.9s0.9-0.9,1.2-1.4c0.3-0.6,0.5-1.2,0.5-2c0-0.8-0.2-1.5-0.5-2c-0.3-0.5-0.7-1-1.3-1.4
		c-0.5-0.4-1.1-0.7-1.8-0.9c-0.7-0.2-1.4-0.5-2.1-0.7c-0.8-0.2-1.5-0.5-2.3-0.8c-0.7-0.3-1.4-0.7-2-1.2c-0.6-0.5-1.1-1.1-1.4-1.8
		c-0.4-0.7-0.5-1.6-0.5-2.7c0-1.1,0.2-2.1,0.7-2.9c0.5-0.8,1-1.5,1.8-2c0.7-0.5,1.5-0.9,2.4-1.2c0.9-0.2,1.7-0.4,2.6-0.4
		c1.6,0,2.9,0.3,4.1,0.8c1.1,0.6,2,1.2,2.5,2L253,128.5z"/>
</g>
<g>
	<path class="st0" d="M70.1,75.3H8.8c-2.4,0-4.4-2-4.4-4.4V9.7c0-2.4,2-4.4,4.4-4.4h61.2c2.4,0,4.4,2,4.4,4.4v61.2
		C74.4,73.4,72.5,75.3,70.1,75.3z"/>
	<path class="st1" d="M148.1,75.3H86.8c-2.4,0-4.4-2-4.4-4.4V9.7c0-2.4,2-4.4,4.4-4.4h61.2c2.4,0,4.4,2,4.4,4.4v61.2
		C152.4,73.4,150.5,75.3,148.1,75.3z"/>
	<path class="st2" d="M70.1,154H8.8c-2.4,0-4.4-2-4.4-4.4V88.4c0-2.4,2-4.4,4.4-4.4h61.2c2.4,0,4.4,2,4.4,4.4v61.2
		C74.4,152,72.5,154,70.1,154z"/>
	<path class="st3" d="M148.1,154H86.8c-2.4,0-4.4-2-4.4-4.4V88.4c0-2.4,2-4.4,4.4-4.4h61.2c2.4,0,4.4,2,4.4,4.4v61.2
		C152.4,152,150.5,154,148.1,154z"/>
	<g>
		<path class="st4" d="M48.9,55l0.2-20.8h-0.1L41.3,55h-5l-7.4-20.8h-0.1L29,55h-6.7V25.6h10.1l6.7,18.8h0.2l6.4-18.8h10.3V55H48.9z
			"/>
	</g>
	<path class="st4" d="M125.1,133.5l-2.3-5.8h-11.4l-2.2,5.8h-7.7l12.3-29.4h6.9l12.2,29.4H125.1z M117.3,112l-3.7,10.1h7.4
		L117.3,112z"/>
	<path class="st4" d="M47.2,133c-1.9,0.9-4.1,1.3-6.6,1.3c-2.3,0-4.4-0.4-6.3-1.1c-1.9-0.7-3.6-1.8-5-3.2c-1.4-1.4-2.5-3-3.3-4.9
		c-0.8-1.9-1.2-4-1.2-6.3c0-2.3,0.4-4.5,1.2-6.4c0.8-1.9,1.9-3.5,3.4-4.9c1.4-1.3,3.1-2.4,5.1-3.1c1.9-0.7,4-1.1,6.3-1.1
		c2.1,0,4.1,0.4,6.1,1.1c2,0.7,3.6,1.8,4.9,3.2l-4.8,4.8c-0.7-0.9-1.5-1.6-2.6-2c-1.1-0.4-2.2-0.7-3.3-0.7c-1.2,0-2.4,0.2-3.4,0.7
		c-1,0.5-1.9,1.1-2.7,1.9c-0.7,0.8-1.3,1.7-1.7,2.8c-0.4,1.1-0.6,2.3-0.6,3.6c0,1.3,0.2,2.5,0.6,3.6c0.4,1.1,1,2.1,1.7,2.8
		c0.7,0.8,1.6,1.4,2.6,1.8c1,0.4,2.1,0.7,3.4,0.7c1.4,0,2.6-0.3,3.7-0.8c1.1-0.6,1.9-1.3,2.5-2.2l4.9,4.6
		C50.7,131,49.1,132.2,47.2,133z"/>
	<path class="st4" d="M113.1,55V25.6h7.1V55H113.1z"/>
</g>
</svg>
