<?xml version="1.0" encoding="utf-8"?>
<!-- Generator: Adobe Illustrator 26.0.2, SVG Export Plug-In . SVG Version: 6.00 Build 0)  -->
<svg version="1.1" id="Calque_1" xmlns="http://www.w3.org/2000/svg" xmlns:xlink="http://www.w3.org/1999/xlink" x="0px" y="0px"
	 width="474.2px" height="159.4px" viewBox="0 0 474.2 159.4" style="enable-background:new 0 0 474.2 159.4;" xml:space="preserve"
	>
<style type="text/css">
	.st0{fill:#030093;}
	.st1{fill:#FF8400;}
	.st2{fill:#E00041;}
	.st3{fill:#759B00;}
	.st4{fill:#FFFFFF;}
</style>
<g>
	<path d="M189.9,28.8L189.9,28.8l8-19.7h3.7v23.8h-2.4V12.2h-0.1l-8.6,20.7h-1.3l-8.6-20.7h-0.1v20.7h-2.4V9.1h3.7L189.9,28.8z"/>
	<path d="M210.3,30.7h12.7v2.2h-15.2V9.1h14.7v2.2h-12.3v8.2h11.5v2.2h-11.5V30.7z M215.6,7.2h-2l3.4-4.8h3.1L215.6,7.2z"/>
	<path d="M227.8,9.1h7.9c1.5,0,3,0.2,4.5,0.7c1.5,0.5,2.8,1.2,4,2.2c1.2,1,2.2,2.2,2.9,3.7c0.7,1.5,1.1,3.2,1.1,5.2
		c0,2-0.4,3.7-1.1,5.2s-1.7,2.7-2.9,3.7c-1.2,1-2.5,1.7-4,2.2c-1.5,0.5-3,0.7-4.5,0.7h-7.9V9.1z M230.2,30.7h4.8
		c1.8,0,3.4-0.3,4.7-0.8c1.3-0.6,2.4-1.3,3.3-2.2c0.9-0.9,1.5-1.9,2-3.1c0.4-1.2,0.7-2.4,0.7-3.6c0-1.2-0.2-2.4-0.7-3.6
		c-0.4-1.2-1.1-2.2-2-3.1c-0.9-0.9-2-1.6-3.3-2.2c-1.3-0.6-2.9-0.8-4.7-0.8h-4.8V30.7z"/>
	<path d="M255.6,32.9h-2.4V9.1h2.4V32.9z"/>
	<path d="M261.8,32.9h-2.7l10.3-23.8h2.4L282,32.9h-2.7l-2.6-6.2h-12.3L261.8,32.9z M265.3,24.4h10.5l-5.2-12.6L265.3,24.4z"/>
	<path d="M291.1,32.9h-2.4V11.2h-8V9.1h18.3v2.2h-8V32.9z"/>
	<path d="M305,32.9h-2.4V9.1h2.4V32.9z"/>
	<path d="M334.9,21c0,1.8-0.3,3.5-0.9,5c-0.6,1.5-1.5,2.8-2.6,3.9s-2.4,2-3.9,2.6s-3.2,0.9-4.9,0.9c-1.8,0-3.4-0.3-4.9-0.9
		c-1.5-0.6-2.8-1.5-3.9-2.6c-1.1-1.1-2-2.4-2.6-3.9c-0.6-1.5-0.9-3.2-0.9-5c0-1.8,0.3-3.5,0.9-5c0.6-1.5,1.5-2.8,2.6-3.9
		c1.1-1.1,2.4-2,3.9-2.6c1.5-0.6,3.2-0.9,4.9-0.9c1.8,0,3.4,0.3,4.9,0.9c1.5,0.6,2.8,1.5,3.9,2.6c1.1,1.1,2,2.4,2.6,3.9
		C334.6,17.5,334.9,19.2,334.9,21z M332.3,21c0-1.4-0.2-2.7-0.7-4c-0.4-1.3-1.1-2.4-1.9-3.3c-0.9-0.9-1.9-1.7-3.1-2.3
		c-1.2-0.6-2.6-0.8-4.1-0.8c-1.5,0-2.9,0.3-4.1,0.8c-1.2,0.6-2.3,1.3-3.1,2.3c-0.9,1-1.5,2.1-1.9,3.3c-0.4,1.3-0.7,2.6-0.7,4
		s0.2,2.7,0.7,4s1.1,2.3,1.9,3.3c0.9,0.9,1.9,1.7,3.1,2.2c1.2,0.6,2.6,0.8,4.1,0.8c1.5,0,2.9-0.3,4.1-0.8c1.2-0.6,2.3-1.3,3.1-2.2
		s1.5-2,1.9-3.3C332.1,23.7,332.3,22.4,332.3,21z"/>
	<path d="M356.8,29.3L356.8,29.3l0.1-20.3h2.4v23.8h-3l-13.8-20.5h-0.1v20.5h-2.4V9.1h3L356.8,29.3z"/>
	<path d="M377.1,12.9c-0.5-0.7-1.2-1.3-2-1.7c-0.8-0.4-1.8-0.7-2.9-0.7c-0.6,0-1.2,0.1-1.8,0.3c-0.6,0.2-1.2,0.5-1.6,0.8
		c-0.5,0.4-0.9,0.8-1.2,1.4s-0.5,1.2-0.5,2c0,0.8,0.1,1.4,0.4,1.9c0.3,0.5,0.7,0.9,1.2,1.3c0.5,0.3,1,0.6,1.6,0.9s1.3,0.4,1.9,0.7
		c0.8,0.3,1.7,0.6,2.5,0.9c0.8,0.3,1.6,0.7,2.3,1.2s1.2,1.1,1.6,1.9s0.6,1.8,0.6,2.9c0,1.2-0.2,2.2-0.7,3.1c-0.5,0.9-1,1.6-1.8,2.1
		s-1.5,1-2.5,1.2c-0.9,0.3-1.9,0.4-2.8,0.4c-0.7,0-1.4-0.1-2.2-0.2c-0.7-0.1-1.4-0.4-2-0.7c-0.7-0.3-1.3-0.7-1.8-1.1
		c-0.6-0.4-1.1-1-1.5-1.5l2.1-1.5c0.5,0.9,1.2,1.6,2.2,2.1s2,0.9,3.3,0.9c0.6,0,1.2-0.1,1.8-0.3c0.6-0.2,1.2-0.5,1.7-0.9
		s0.9-0.9,1.2-1.4c0.3-0.6,0.5-1.2,0.5-2c0-0.8-0.2-1.5-0.5-2.1c-0.3-0.5-0.8-1-1.3-1.4c-0.5-0.4-1.2-0.7-1.8-0.9s-1.4-0.5-2.2-0.7
		c-0.8-0.2-1.6-0.5-2.3-0.8s-1.4-0.7-2-1.2c-0.6-0.5-1.1-1.1-1.5-1.9c-0.4-0.7-0.6-1.6-0.6-2.7c0-1.1,0.2-2.1,0.7-3
		c0.5-0.8,1.1-1.5,1.8-2c0.7-0.5,1.6-0.9,2.5-1.2c0.9-0.2,1.8-0.4,2.7-0.4c1.6,0,3,0.3,4.1,0.9c1.1,0.6,2,1.2,2.6,2L377.1,12.9z"/>
	<path d="M180.6,73.2h-2.4V49.4h2.4V73.2z"/>
	<path d="M203.7,69.7L203.7,69.7l0.1-20.3h2.4v23.8h-3l-13.8-20.5h-0.1v20.5h-2.4V49.4h3L203.7,69.7z"/>
	<path d="M215,73.2h-2.4V49.4h14.3v2.2H215v8.2H226v2.2H215V73.2z"/>
	<path d="M254.9,61.3c0,1.8-0.3,3.5-0.9,5c-0.6,1.5-1.5,2.8-2.6,3.9c-1.1,1.1-2.4,2-3.9,2.6s-3.2,0.9-4.9,0.9
		c-1.8,0-3.4-0.3-4.9-0.9c-1.5-0.6-2.8-1.5-3.9-2.6c-1.1-1.1-2-2.4-2.6-3.9c-0.6-1.5-0.9-3.2-0.9-5s0.3-3.5,0.9-5s1.5-2.8,2.6-3.9
		c1.1-1.1,2.4-2,3.9-2.6c1.5-0.6,3.2-0.9,4.9-0.9c1.8,0,3.4,0.3,4.9,0.9s2.8,1.5,3.9,2.6c1.1,1.1,2,2.4,2.6,3.9
		S254.9,59.5,254.9,61.3z M252.4,61.3c0-1.4-0.2-2.7-0.7-4c-0.4-1.3-1.1-2.4-1.9-3.3s-1.9-1.7-3.1-2.3c-1.2-0.6-2.6-0.8-4.1-0.8
		c-1.5,0-2.9,0.3-4.1,0.8c-1.2,0.6-2.3,1.3-3.1,2.3c-0.9,1-1.5,2.1-1.9,3.3s-0.7,2.6-0.7,4s0.2,2.7,0.7,4c0.4,1.3,1.1,2.3,1.9,3.3
		c0.9,0.9,1.9,1.7,3.1,2.2c1.2,0.6,2.6,0.8,4.1,0.8c1.5,0,2.9-0.3,4.1-0.8c1.2-0.6,2.3-1.3,3.1-2.2c0.9-0.9,1.5-2,1.9-3.3
		C252.2,64,252.4,62.7,252.4,61.3z"/>
	<path d="M262.4,73.2H260V49.4h7c1.2,0,2.2,0.1,3.2,0.3c1,0.2,1.9,0.6,2.6,1.1c0.7,0.5,1.3,1.2,1.7,2c0.4,0.8,0.6,1.8,0.6,3
		c0,0.9-0.2,1.7-0.5,2.4s-0.7,1.3-1.3,1.9c-0.5,0.5-1.2,0.9-1.9,1.3c-0.7,0.3-1.5,0.5-2.4,0.6l7,11.3h-3l-6.6-11.1h-4V73.2z
		 M262.4,60h4.2c1.9,0,3.4-0.4,4.5-1.1c1.1-0.7,1.6-1.8,1.6-3.2c0-0.8-0.1-1.4-0.4-2c-0.3-0.5-0.7-1-1.2-1.3
		c-0.5-0.3-1.1-0.6-1.9-0.7s-1.6-0.2-2.5-0.2h-4.3V60z"/>
	<path d="M291.9,69.1L291.9,69.1l8-19.7h3.7v23.8h-2.4V52.5h-0.1l-8.6,20.7h-1.3l-8.6-20.7h-0.1v20.7h-2.4V49.4h3.7L291.9,69.1z"/>
	<path d="M309.7,73.2H307l10.3-23.8h2.4l10.2,23.8h-2.7l-2.6-6.2h-12.3L309.7,73.2z M313.2,64.7h10.5l-5.2-12.6L313.2,64.7z"/>
	<path d="M339,73.2h-2.4V51.6h-8v-2.2H347v2.2h-8V73.2z"/>
	<path d="M352.9,73.2h-2.4V49.4h2.4V73.2z"/>
	<path d="M382.8,61.3c0,1.8-0.3,3.5-0.9,5c-0.6,1.5-1.5,2.8-2.6,3.9c-1.1,1.1-2.4,2-3.9,2.6s-3.2,0.9-4.9,0.9
		c-1.8,0-3.4-0.3-4.9-0.9c-1.5-0.6-2.8-1.5-3.9-2.6c-1.1-1.1-2-2.4-2.6-3.9c-0.6-1.5-0.9-3.2-0.9-5s0.3-3.5,0.9-5s1.5-2.8,2.6-3.9
		c1.1-1.1,2.4-2,3.9-2.6c1.5-0.6,3.2-0.9,4.9-0.9c1.8,0,3.4,0.3,4.9,0.9s2.8,1.5,3.9,2.6c1.1,1.1,2,2.4,2.6,3.9
		S382.8,59.5,382.8,61.3z M380.2,61.3c0-1.4-0.2-2.7-0.7-4c-0.4-1.3-1.1-2.4-1.9-3.3s-1.9-1.7-3.1-2.3c-1.2-0.6-2.6-0.8-4.1-0.8
		c-1.5,0-2.9,0.3-4.1,0.8c-1.2,0.6-2.3,1.3-3.1,2.3c-0.9,1-1.5,2.1-1.9,3.3s-0.7,2.6-0.7,4s0.2,2.7,0.7,4c0.4,1.3,1.1,2.3,1.9,3.3
		c0.9,0.9,1.9,1.7,3.1,2.2c1.2,0.6,2.6,0.8,4.1,0.8c1.5,0,2.9-0.3,4.1-0.8c1.2-0.6,2.3-1.3,3.1-2.2c0.9-0.9,1.5-2,1.9-3.3
		C380,64,380.2,62.7,380.2,61.3z"/>
	<path d="M404.7,69.7L404.7,69.7l0.1-20.3h2.4v23.8h-3l-13.8-20.5h-0.1v20.5h-2.4V49.4h3L404.7,69.7z"/>
	<path d="M425,53.2c-0.5-0.7-1.2-1.3-2-1.7c-0.8-0.4-1.8-0.7-2.9-0.7c-0.6,0-1.2,0.1-1.8,0.3c-0.6,0.2-1.2,0.5-1.6,0.8
		c-0.5,0.4-0.9,0.8-1.2,1.4c-0.3,0.6-0.5,1.2-0.5,2c0,0.8,0.1,1.4,0.4,1.9c0.3,0.5,0.7,0.9,1.2,1.3s1,0.6,1.6,0.9
		c0.6,0.2,1.3,0.4,1.9,0.7c0.8,0.3,1.7,0.6,2.5,0.9s1.6,0.7,2.3,1.2s1.2,1.1,1.6,1.9c0.4,0.8,0.6,1.8,0.6,2.9s-0.2,2.2-0.7,3.1
		c-0.5,0.9-1,1.6-1.8,2.1c-0.7,0.6-1.5,1-2.5,1.2c-0.9,0.3-1.9,0.4-2.8,0.4c-0.7,0-1.4-0.1-2.2-0.2s-1.4-0.4-2-0.7
		c-0.7-0.3-1.3-0.7-1.8-1.1c-0.6-0.4-1.1-1-1.5-1.5l2.1-1.5c0.5,0.9,1.2,1.6,2.2,2.1s2,0.9,3.3,0.9c0.6,0,1.2-0.1,1.8-0.3
		c0.6-0.2,1.2-0.5,1.7-0.9c0.5-0.4,0.9-0.9,1.2-1.4c0.3-0.6,0.5-1.2,0.5-2c0-0.8-0.2-1.5-0.5-2.1c-0.3-0.5-0.8-1-1.3-1.4
		c-0.5-0.4-1.2-0.7-1.8-0.9c-0.7-0.2-1.4-0.5-2.2-0.7c-0.8-0.2-1.6-0.5-2.3-0.8c-0.8-0.3-1.4-0.7-2-1.2c-0.6-0.5-1.1-1.1-1.5-1.9
		c-0.4-0.7-0.6-1.6-0.6-2.7c0-1.1,0.2-2.1,0.7-3c0.5-0.8,1.1-1.5,1.8-2c0.7-0.5,1.6-0.9,2.5-1.2c0.9-0.2,1.8-0.4,2.7-0.4
		c1.6,0,3,0.3,4.1,0.9c1.1,0.6,2,1.2,2.6,2L425,53.2z"/>
	<path d="M198.2,109.6c-0.4,0.6-0.9,1.2-1.5,1.7s-1.2,1-2,1.4c-0.8,0.4-1.6,0.7-2.5,1c-0.9,0.2-1.9,0.4-3,0.4c-1.8,0-3.5-0.3-5-0.9
		c-1.5-0.6-2.8-1.5-3.9-2.6c-1.1-1.1-2-2.4-2.6-3.9c-0.6-1.5-0.9-3.2-0.9-5c0-1.8,0.3-3.5,0.9-5c0.6-1.5,1.5-2.8,2.6-3.9
		c1.1-1.1,2.4-2,3.9-2.6c1.5-0.6,3.2-0.9,4.9-0.9c0.9,0,1.7,0.1,2.6,0.3c0.8,0.2,1.6,0.4,2.4,0.8c0.7,0.3,1.4,0.7,2,1.2
		c0.6,0.5,1.1,1,1.5,1.6l-2,1.5c-0.2-0.4-0.6-0.8-1-1.1s-0.9-0.7-1.5-1c-0.6-0.3-1.2-0.5-1.8-0.7c-0.7-0.2-1.4-0.3-2.1-0.3
		c-1.5,0-2.9,0.3-4.1,0.8c-1.2,0.6-2.3,1.3-3.1,2.3c-0.9,0.9-1.5,2-1.9,3.3c-0.4,1.3-0.7,2.6-0.7,4c0,1.4,0.2,2.7,0.7,4
		c0.5,1.3,1.1,2.3,2,3.3c0.9,0.9,1.9,1.7,3.1,2.3c1.2,0.6,2.6,0.8,4.1,0.8c1.4,0,2.7-0.3,3.9-0.8c1.2-0.6,2.3-1.5,3.1-2.7
		L198.2,109.6z"/>
	<path d="M225.4,101.6c0,1.8-0.3,3.5-0.9,5c-0.6,1.5-1.5,2.8-2.6,3.9s-2.4,2-3.9,2.6s-3.2,0.9-4.9,0.9c-1.8,0-3.4-0.3-4.9-0.9
		c-1.5-0.6-2.8-1.5-3.9-2.6c-1.1-1.1-2-2.4-2.6-3.9c-0.6-1.5-0.9-3.2-0.9-5c0-1.8,0.3-3.5,0.9-5c0.6-1.5,1.5-2.8,2.6-3.9
		c1.1-1.1,2.4-2,3.9-2.6c1.5-0.6,3.2-0.9,4.9-0.9c1.8,0,3.4,0.3,4.9,0.9c1.5,0.6,2.8,1.5,3.9,2.6c1.1,1.1,2,2.4,2.6,3.9
		C225.1,98.1,225.4,99.8,225.4,101.6z M222.9,101.6c0-1.4-0.2-2.7-0.7-4c-0.4-1.3-1.1-2.4-1.9-3.3c-0.9-0.9-1.9-1.7-3.1-2.3
		c-1.2-0.6-2.6-0.8-4.1-0.8c-1.5,0-2.9,0.3-4.1,0.8c-1.2,0.6-2.3,1.3-3.1,2.3c-0.9,1-1.5,2.1-1.9,3.3c-0.4,1.3-0.7,2.6-0.7,4
		s0.2,2.7,0.7,4s1.1,2.3,1.9,3.3c0.9,0.9,1.9,1.7,3.1,2.2c1.2,0.6,2.6,0.8,4.1,0.8c1.5,0,2.9-0.3,4.1-0.8c1.2-0.6,2.3-1.3,3.1-2.2
		s1.5-2,1.9-3.3C222.7,104.3,222.9,103,222.9,101.6z"/>
	<path d="M242.2,109.4L242.2,109.4l8-19.7h3.7v23.8h-2.4V92.8h-0.1l-8.6,20.7h-1.3L233,92.8h-0.1v20.7h-2.4V89.7h3.7L242.2,109.4z"
		/>
	<path d="M272,109.4L272,109.4l8-19.7h3.7v23.8h-2.4V92.8h-0.1l-8.6,20.7h-1.3l-8.6-20.7h-0.1v20.7h-2.4V89.7h3.7L272,109.4z"/>
	<path d="M298.8,114.1c-1.8,0-3.3-0.3-4.4-0.9c-1.1-0.6-2-1.4-2.7-2.3c-0.7-0.9-1.1-2-1.4-3.1c-0.3-1.1-0.4-2.2-0.4-3.1V89.7h2.4
		v14.6c0,1,0.1,1.9,0.3,2.8s0.6,1.7,1.1,2.4c0.5,0.7,1.2,1.3,2,1.7c0.8,0.4,1.8,0.7,3.1,0.7c1.2,0,2.2-0.2,3.1-0.7
		c0.8-0.4,1.5-1,2-1.7c0.5-0.7,0.9-1.5,1.1-2.4s0.3-1.8,0.3-2.8V89.7h2.4v14.9c0,1-0.1,2-0.4,3.1c-0.3,1.1-0.7,2.1-1.4,3.1
		c-0.7,0.9-1.6,1.7-2.7,2.3C302,113.8,300.6,114.1,298.8,114.1z"/>
	<path d="M330.7,110L330.7,110l0.1-20.3h2.4v23.8h-3L316.4,93h-0.1v20.5h-2.4V89.7h3L330.7,110z"/>
	<path d="M342,113.5h-2.4V89.7h2.4V113.5z"/>
	<path d="M368.3,109.6c-0.4,0.6-0.9,1.2-1.5,1.7s-1.2,1-2,1.4c-0.8,0.4-1.6,0.7-2.5,1c-0.9,0.2-1.9,0.4-3,0.4c-1.8,0-3.5-0.3-5-0.9
		c-1.5-0.6-2.8-1.5-3.9-2.6c-1.1-1.1-2-2.4-2.6-3.9c-0.6-1.5-0.9-3.2-0.9-5c0-1.8,0.3-3.5,0.9-5c0.6-1.5,1.5-2.8,2.6-3.9
		c1.1-1.1,2.4-2,3.9-2.6c1.5-0.6,3.2-0.9,4.9-0.9c0.9,0,1.7,0.1,2.6,0.3c0.8,0.2,1.6,0.4,2.4,0.8c0.7,0.3,1.4,0.7,2,1.2
		c0.6,0.5,1.1,1,1.5,1.6l-2,1.5c-0.2-0.4-0.6-0.8-1-1.1s-0.9-0.7-1.5-1c-0.6-0.3-1.2-0.5-1.8-0.7c-0.7-0.2-1.4-0.3-2.1-0.3
		c-1.5,0-2.9,0.3-4.1,0.8c-1.2,0.6-2.3,1.3-3.1,2.3c-0.9,0.9-1.5,2-1.9,3.3c-0.4,1.3-0.7,2.6-0.7,4c0,1.4,0.2,2.7,0.7,4
		c0.5,1.3,1.1,2.3,2,3.3c0.9,0.9,1.9,1.7,3.1,2.3c1.2,0.6,2.6,0.8,4.1,0.8c1.4,0,2.7-0.3,3.9-0.8c1.2-0.6,2.3-1.5,3.1-2.7
		L368.3,109.6z"/>
	<path d="M371.9,113.5h-2.7l10.3-23.8h2.4l10.2,23.8h-2.7l-2.6-6.2h-12.3L371.9,113.5z M375.4,105h10.5l-5.2-12.6L375.4,105z"/>
	<path d="M401.2,113.5h-2.4V91.9h-8v-2.2h18.3v2.2h-8V113.5z"/>
	<path d="M415.1,113.5h-2.4V89.7h2.4V113.5z"/>
	<path d="M445,101.6c0,1.8-0.3,3.5-0.9,5c-0.6,1.5-1.5,2.8-2.6,3.9s-2.4,2-3.9,2.6s-3.2,0.9-4.9,0.9c-1.8,0-3.4-0.3-4.9-0.9
		c-1.5-0.6-2.8-1.5-3.9-2.6c-1.1-1.1-2-2.4-2.6-3.9c-0.6-1.5-0.9-3.2-0.9-5c0-1.8,0.3-3.5,0.9-5c0.6-1.5,1.5-2.8,2.6-3.9
		c1.1-1.1,2.4-2,3.9-2.6c1.5-0.6,3.2-0.9,4.9-0.9c1.8,0,3.4,0.3,4.9,0.9c1.5,0.6,2.8,1.5,3.9,2.6c1.1,1.1,2,2.4,2.6,3.9
		C444.7,98.1,445,99.8,445,101.6z M442.4,101.6c0-1.4-0.2-2.7-0.7-4c-0.4-1.3-1.1-2.4-1.9-3.3c-0.9-0.9-1.9-1.7-3.1-2.3
		c-1.2-0.6-2.6-0.8-4.1-0.8c-1.5,0-2.9,0.3-4.1,0.8c-1.2,0.6-2.3,1.3-3.1,2.3c-0.9,1-1.5,2.1-1.9,3.3c-0.4,1.3-0.7,2.6-0.7,4
		s0.2,2.7,0.7,4s1.1,2.3,1.9,3.3c0.9,0.9,1.9,1.7,3.1,2.2c1.2,0.6,2.6,0.8,4.1,0.8c1.5,0,2.9-0.3,4.1-0.8c1.2-0.6,2.3-1.3,3.1-2.2
		s1.5-2,1.9-3.3C442.2,104.3,442.4,103,442.4,101.6z"/>
	<path d="M466.9,110L466.9,110l0.1-20.3h2.4v23.8h-3L452.5,93h-0.1v20.5H450V89.7h3L466.9,110z"/>
	<path d="M178,153.8h-2.7l10.3-23.8h2.4l10.2,23.8h-2.7l-2.6-6.2h-12.3L178,153.8z M181.5,145.4h10.5l-5.2-12.6L181.5,145.4z"/>
	<path d="M204.1,153.8h-2.4V130h7c1.2,0,2.2,0.1,3.2,0.3c1,0.2,1.9,0.6,2.6,1.1c0.7,0.5,1.3,1.2,1.7,2c0.4,0.8,0.6,1.8,0.6,3
		c0,0.9-0.2,1.7-0.5,2.4s-0.7,1.3-1.3,1.9c-0.5,0.5-1.2,0.9-1.9,1.3c-0.7,0.3-1.5,0.5-2.4,0.6l7,11.3h-3l-6.6-11.1h-4V153.8z
		 M204.1,140.6h4.2c1.9,0,3.4-0.4,4.5-1.1c1.1-0.7,1.6-1.8,1.6-3.2c0-0.8-0.1-1.4-0.4-2c-0.3-0.5-0.7-1-1.2-1.3
		c-0.5-0.3-1.1-0.6-1.9-0.7s-1.6-0.2-2.5-0.2h-4.3V140.6z"/>
	<path d="M229,153.8h-2.4v-21.6h-8V130H237v2.2h-8V153.8z"/>
	<path d="M252.1,133.9c-0.5-0.7-1.2-1.3-2-1.7c-0.8-0.4-1.8-0.7-2.9-0.7c-0.6,0-1.2,0.1-1.8,0.3c-0.6,0.2-1.2,0.5-1.6,0.8
		c-0.5,0.4-0.9,0.8-1.2,1.4c-0.3,0.6-0.5,1.2-0.5,2c0,0.8,0.1,1.4,0.4,1.9c0.3,0.5,0.7,0.9,1.2,1.3s1,0.6,1.6,0.9
		c0.6,0.2,1.3,0.4,1.9,0.7c0.8,0.3,1.7,0.6,2.5,0.9s1.6,0.7,2.3,1.2s1.2,1.1,1.6,1.9c0.4,0.8,0.6,1.8,0.6,2.9s-0.2,2.2-0.7,3.1
		c-0.5,0.9-1,1.6-1.8,2.1c-0.7,0.6-1.5,1-2.5,1.2c-0.9,0.3-1.9,0.4-2.8,0.4c-0.7,0-1.4-0.1-2.2-0.2s-1.4-0.4-2-0.7
		c-0.7-0.3-1.3-0.7-1.8-1.1c-0.6-0.4-1.1-1-1.5-1.5l2.1-1.5c0.5,0.9,1.2,1.6,2.2,2.1s2,0.9,3.3,0.9c0.6,0,1.2-0.1,1.8-0.3
		c0.6-0.2,1.2-0.5,1.7-0.9c0.5-0.4,0.9-0.9,1.2-1.4c0.3-0.6,0.5-1.2,0.5-2c0-0.8-0.2-1.5-0.5-2.1c-0.3-0.5-0.8-1-1.3-1.4
		c-0.5-0.4-1.2-0.7-1.8-0.9c-0.7-0.2-1.4-0.5-2.2-0.7c-0.8-0.2-1.6-0.5-2.3-0.8c-0.8-0.3-1.4-0.7-2-1.2c-0.6-0.5-1.1-1.1-1.5-1.9
		c-0.4-0.7-0.6-1.6-0.6-2.7c0-1.1,0.2-2.1,0.7-3c0.5-0.8,1.1-1.5,1.8-2c0.7-0.5,1.6-0.9,2.5-1.2c0.9-0.2,1.8-0.4,2.7-0.4
		c1.6,0,3,0.3,4.1,0.9c1.1,0.6,2,1.2,2.6,2L252.1,133.9z"/>
</g>
<g>
	<path class="st0" d="M67.8,77.3H6.6c-2.4,0-4.4-2-4.4-4.4V11.7c0-2.4,2-4.4,4.4-4.4h61.2c2.4,0,4.4,2,4.4,4.4v61.2
		C72.2,75.3,70.2,77.3,67.8,77.3z"/>
	<path class="st1" d="M145.8,77.3H84.6c-2.4,0-4.4-2-4.4-4.4V11.7c0-2.4,2-4.4,4.4-4.4h61.2c2.4,0,4.4,2,4.4,4.4v61.2
		C150.2,75.3,148.2,77.3,145.8,77.3z"/>
	<path class="st2" d="M67.8,156H6.6c-2.4,0-4.4-2-4.4-4.4V90.4c0-2.4,2-4.4,4.4-4.4h61.2c2.4,0,4.4,2,4.4,4.4v61.2
		C72.2,154,70.2,156,67.8,156z"/>
	<path class="st3" d="M145.8,156H84.6c-2.4,0-4.4-2-4.4-4.4V90.4c0-2.4,2-4.4,4.4-4.4h61.2c2.4,0,4.4,2,4.4,4.4v61.2
		C150.2,154,148.2,156,145.8,156z"/>
	<g>
		<path class="st4" d="M46.6,56.9l0.2-20.8h-0.1L39,56.9h-5l-7.4-20.8h-0.1l0.2,20.8H20V27.6h10.1l6.7,18.8h0.2l6.4-18.8h10.3v29.4
			H46.6z"/>
	</g>
	<path class="st4" d="M122.9,135.5l-2.3-5.8h-11.4l-2.2,5.8h-7.7l12.3-29.4h6.9l12.2,29.4H122.9z M115,114l-3.7,10.1h7.4L115,114z"
		/>
	<path class="st4" d="M44.9,135c-1.9,0.9-4.1,1.3-6.6,1.3c-2.3,0-4.4-0.4-6.3-1.1c-1.9-0.7-3.6-1.8-5-3.2c-1.4-1.4-2.5-3-3.3-4.9
		s-1.2-4-1.2-6.3c0-2.3,0.4-4.5,1.2-6.4c0.8-1.9,1.9-3.5,3.4-4.9c1.4-1.3,3.1-2.4,5.1-3.1c1.9-0.7,4-1.1,6.3-1.1
		c2.1,0,4.1,0.4,6.1,1.1c2,0.7,3.6,1.8,4.9,3.2l-4.8,4.8c-0.7-0.9-1.5-1.6-2.6-2c-1.1-0.4-2.2-0.7-3.3-0.7c-1.2,0-2.4,0.2-3.4,0.7
		c-1,0.5-1.9,1.1-2.7,1.9c-0.7,0.8-1.3,1.7-1.7,2.8c-0.4,1.1-0.6,2.3-0.6,3.6c0,1.3,0.2,2.5,0.6,3.6c0.4,1.1,1,2.1,1.7,2.8
		c0.7,0.8,1.6,1.4,2.6,1.8c1,0.4,2.1,0.7,3.4,0.7c1.4,0,2.6-0.3,3.7-0.8s1.9-1.3,2.5-2.2l4.9,4.6C48.4,133,46.8,134.2,44.9,135z"/>
	<path class="st4" d="M110.8,56.9V27.6h7.1v29.4H110.8z"/>
</g>
</svg>
